<?xml version="1.0" encoding="utf-8"?>
<!-- Generator: Adobe Illustrator 21.1.0, SVG Export Plug-In . SVG Version: 6.00 Build 0)  -->
<svg version="1.1" id="Layer_1" xmlns="http://www.w3.org/2000/svg" xmlns:xlink="http://www.w3.org/1999/xlink" x="0px" y="0px"
	 viewBox="0 0 1920 1200" style="enable-background:new 0 0 1920 1200;" xml:space="preserve">
<g>
	<path d="M601.3,511.2c4.9,0,9.3,0.3,13.7-0.2c1.2-0.1,2.3-2.2,3.2-3.5c3.4-5.2,8.1-5.1,11.1,0.3c0.4,0.7,1,1.4,1.6,1.8
		c3.8,2,13.2,0,15.8-3.4c3-3.8,7.3-3,9.7,1.1c0.8,1.4,3.3,2.6,5,2.6c10.3,0.2,20.7,0,31,0.2c3.2,0.1,6.6,0.8,9.7,2
		c18.2,7.3,36.4,14.9,54.6,22.3c2.8,1.1,5.9,1.5,8.5,2.9c6,3.1,9.8,11.6,8.7,18.9c-1.2,8-5.9,12.6-13.1,15.2
		c-13.2,4.7-26,10.2-39,15.4c-2.8,1.1-5.7,2-8.3,3.5c-11.6,6.9-24.3,5.7-36.9,5.8c-19.1,0.1-38.2,0.1-57.4,0.2
		c-14.3,0-28.6,0-42.9,0c-23.3,0-46.6-0.1-69.9-0.1c-19.5,0-39-0.1-58.4,0c-15.8,0.1-31.6,0.6-47.3,0.6c-20.6,0-41.2-0.3-61.8-0.3
		c-3,0-6.1,0.9-9.4,1.5c1.1,3.6,3.2,6.2,7.1,7.8c51.4,20.9,102.7,42,154,63c3.4,1.4,6.7,2.2,10.8,2c4.8-0.3,9.9,2.5,14.6,4.4
		c23.3,9.5,46.5,19.2,69.7,28.9c10.7,4.5,21.4,9.2,32.1,13.8c0.9,0.4,1.9,0.6,2.9,0.8c4.7,1.2,7.1,4.9,6.5,10.2
		c-0.5,4.5-3.8,7.8-8.5,7.2c-4.4-0.5-8.8-1.7-12.9-3.3c-22.7-9-45.4-18.1-68.1-27.4c-11.4-4.7-23.3-8.5-33.9-14.7
		c-39.6-23.2-83.5-36.1-125.1-54.5c-15.8-7-32-13.3-48-19.9c-1.6-0.7-3.9-1.3-5.2-0.7c-4.6,2.1-8.7,0.8-13-0.9
		c-13.7-5.6-27.5-11.1-41.3-16.4c-2.4-0.9-5.2-1.1-7.8-1.2c-12-0.4-24-0.2-35.9-1.2c-4.6-0.4-9.2-3.4-13.5-5.7
		c-2.7-1.5-4.8-4.2-7.5-5.8c-12.9-7.5-17.8-18.6-15.7-33.2c0.5-3.6,0.3-7.3,0-11c-0.6-7.4,2-13.3,7.5-18.1
		c5.8-5.2,11.1-11.1,17.4-15.6c4-2.9,9.4-3.8,14.2-5.4c1.7-0.5,3.6-0.1,5.5-0.1c13.6,0,13.6,0,13.6-13.8c0-5,0.2-10-0.1-15
		c-0.3-4.7,1.5-6.4,6.3-6.3c35.8,0.2,71.7,0.1,107.5,0.1c140.3,0,280.6,0,420.9,0c17,0,34,0.2,51-0.1c5.2-0.1,6.7,1.8,6.5,6.7
		c-0.2,7.8-0.3,15.7,0.1,23.5c0.3,5.1-1.5,6.6-6.5,6.6c-40.8-0.2-81.7-0.1-122.5-0.1c-126.1,0-252.3,0-378.4,0
		c-1.8,0-3.8-0.4-5.4,0.2c-1.3,0.5-3.1,2.2-3.1,3.4c0.1,1.6,1.3,4,2.6,4.5c5,1.9,8.9,0.1,12.8-4.1c1.4-1.5,4.3-2,6.6-2
		c1,0,2.1,2.3,3,3.7c0.4,0.7,0.5,1.7,1,2.2c2.5,2.5,14.6,0.8,16.3-2.4c1.6-2.9,3.6-4,6.8-3.8c3.2,0.1,3.7,2.2,4,4.7
		c0.1,0.7,0.7,1.5,1.3,2c3.1,2.2,13.8,0.2,15.7-3.1c1.7-2.8,4-3.7,7.1-3.5c3.3,0.2,3.5,2.4,3.9,4.8c0.1,0.6,0.4,1.3,0.9,1.7
		c2.4,2.5,13.9,1.1,15.6-2c1.4-2.7,2.9-4.6,6.4-4.5c2.9,0.1,4.9,0.8,4.9,4.2c0,3.5,2.1,4.1,5,3.7c1.3-0.2,2.7-0.4,4-0.1
		c3.9,0.8,6.6-0.6,8.1-4.1c1.5-3.4,4.2-3.8,7.4-3.6c3.4,0.2,3.3,2.7,3.6,5c0.1,0.8,0.4,1.7,1,2.2c1.9,1.8,13.7-0.8,15.5-2.8
		c1.6-1.8,3.7-3.6,5.9-4.3c2.7-0.8,4.9,0.5,4.8,3.9c-0.1,2.9,1.2,3.7,4,3.3c2.4-0.3,4.9-0.1,7.4,0c3,0.1,5.1-0.9,6.1-3.9
		c1.1-3.3,3.8-3.7,6.9-3.5c3.4,0.2,3.3,2.5,3.6,4.9c0.1,0.9,0.8,2.4,1.3,2.4c3.1,0.3,6.3-0.2,9.4,0.4c4.2,0.7,5.2-2.1,7.3-4.6
		c1.4-1.7,4.3-2.6,6.6-2.8c1-0.1,2.2,2.5,3.4,3.8c1,1.1,1.9,2.8,3.2,3.2c5.8,1.9,10.7-0.1,14.9-4.6c1.5-1.6,4.5-2.3,6.9-2.3
		c1,0,2.1,2.6,3,4.1c0.5,0.8,0.4,2.1,1,2.7c2.6,2.4,13.9-0.2,16.1-3.2c1.1-1.6,2.9-3.3,4.7-3.8C600.2,502.6,601.4,506.2,601.3,511.2
		z M400.9,470.2c-4.8,0-9.7,0.1-14.5,0c-3-0.1-4.2,1.2-4.2,4.2c0.1,5,0.1,10,0,15c-0.1,3.2,1.5,4.4,4.6,4.4c9.5-0.1,19-0.1,28.5,0
		c3.2,0,4.5-1.4,4.4-4.5c-0.1-4.8-0.2-9.7,0-14.5c0.1-3.6-1.5-4.7-4.8-4.6C410.2,470.3,405.6,470.2,400.9,470.2z M358,493.7
		c4.8,0,9.6-0.1,14.4,0c3.2,0.1,4.5-1.3,4.4-4.5c-0.1-5-0.1-10,0-14.9c0.1-3-1.3-4.2-4.2-4.2c-9.5,0.1-18.9,0.1-28.4,0
		c-3,0-4.2,1.3-4.2,4.2c0.1,5,0.1,10,0,14.9c-0.1,3.2,1.4,4.5,4.5,4.4C349,493.6,353.5,493.7,358,493.7z M443.1,493.7
		c4.6,0,9.3-0.1,13.9,0c3.7,0.2,5-1.4,4.9-5c-0.2-4.5-0.2-9,0-13.4c0.1-3.5-1-5.2-4.8-5.1c-9.1,0.1-18.3,0.1-27.4,0
		c-3.1,0-4.7,1-4.6,4.3c0.1,5,0.1,10,0,14.9c-0.1,3.3,1.4,4.4,4.5,4.3C434.2,493.6,438.6,493.7,443.1,493.7z M486.3,493.7
		c4.6,0,9.3-0.1,13.9,0c3,0.1,4.7-0.9,4.6-4.3c-0.1-5-0.1-10,0-14.9c0.1-3.2-1.4-4.4-4.5-4.4c-9.3,0.1-18.6,0.1-27.9,0
		c-3.3,0-4.4,1.5-4.4,4.5c0.1,4.8,0.1,9.6,0,14.4c-0.1,3.5,1.4,4.7,4.8,4.6C477.4,493.6,481.8,493.7,486.3,493.7z M529.3,493.7
		c4.6,0,9.3-0.1,13.9,0c3.1,0.1,4.6-1,4.5-4.3c-0.1-5-0.1-10,0-14.9c0.1-3.3-1.4-4.4-4.5-4.4c-9.1,0.1-18.3,0.1-27.4,0
		c-3.3,0-5,1.1-4.9,4.6c0.1,4.8,0.1,9.6,0,14.4c-0.1,3.5,1.5,4.7,4.9,4.6C520.3,493.6,524.8,493.7,529.3,493.7z M614.3,493.7
		c4.8,0,9.6-0.1,14.4,0c3,0.1,4.2-1.2,4.2-4.2c-0.1-5.1,0.2-10.3-0.2-15.4c-0.1-1.4-2.4-3.7-3.7-3.8c-9.6-0.3-19.3-0.2-28.9-0.2
		c-2.7,0-3.9,1.2-3.9,3.9c0,5.1,0.1,10.3,0,15.4c-0.1,2.9,1.2,4.2,4.2,4.2C605,493.6,609.6,493.7,614.3,493.7z M657.3,493.7
		c4.8,0,9.6-0.1,14.4,0c3,0.1,4.2-1.3,4.1-4.2c-0.1-5.1-0.1-10.3,0-15.4c0-2.7-1.2-3.9-3.9-3.9c-9.6,0-19.3-0.1-28.9,0.2
		c-1.3,0-3.6,2.4-3.7,3.8c-0.5,5.1-0.1,10.3-0.2,15.4c0,3,1.3,4.2,4.2,4.1C648,493.6,652.6,493.7,657.3,493.7z M315.3,493.7
		c4.8,0,9.6-0.1,14.4,0c3,0.1,4.2-1.3,4.2-4.2c-0.1-5-0.1-10,0-14.9c0.1-3.2-1.3-4.5-4.5-4.4c-9.3,0.1-18.6,0.1-27.9,0
		c-3.2,0-4.5,1.4-4.4,4.5c0.1,5,0.1,10,0,14.9c-0.1,3,1.3,4.2,4.2,4.1C306,493.6,310.6,493.7,315.3,493.7z M571.4,493.7
		C571.4,493.7,571.4,493.7,571.4,493.7c4.7,0,9.3-0.1,14,0c3.1,0.1,4.6-1.1,4.6-4.4c-0.1-5-0.1-10,0-15c0-2.9-1.3-4.2-4.2-4.2
		c-9.5,0.1-19,0.1-28.5,0c-3.1,0-4.1,1.4-4.1,4.3c0.1,5,0.1,10,0,15c0,2.9,1.2,4.3,4.2,4.2C562.1,493.6,566.8,493.7,571.4,493.7z
		 M272.6,493.7c4.7,0,9.3-0.1,14,0c2.8,0.1,4.4-1,4.4-4c-0.1-5.2-0.1-10.3,0-15.5c0-3-1.5-4.1-4.3-4.1c-9.1,0.1-18.3,0.1-27.4,0
		c-3,0-4.1,1.5-4.1,4.3c0.1,5,0.1,10,0,15c-0.1,3.3,1.5,4.4,4.6,4.3C264,493.6,268.3,493.7,272.6,493.7z M818.8,470.2
		c-4.3,0-8.7,0.1-13,0c-3.1-0.1-4.7,1-4.6,4.3c0.1,5,0.1,10,0,15c-0.1,3.3,1.5,4.3,4.6,4.3c8.5-0.1,17-0.1,25.5,0
		c3.1,0,4.7-0.9,4.6-4.3c-0.1-5-0.1-10,0-15c0.1-3.3-1.5-4.4-4.6-4.3C827.1,470.2,822.9,470.2,818.8,470.2z M698.8,470.2
		c-4.3,0-8.6,0.1-13,0c-3.1-0.1-4.6,1-4.5,4.3c0.1,5,0.1,10,0,15c0,2.9,1.1,4.3,4.1,4.3c8.8,0,17.6-0.1,26.4,0c3.1,0,4.1-1.5,4-4.3
		c-0.1-4.8-0.1-9.6,0-14.5c0.1-3.3-1.1-4.9-4.6-4.8C707.1,470.3,702.9,470.2,698.8,470.2z M739.2,470.2c-4.3,0-8.6,0.1-13,0
		c-2.9,0-4.3,1.3-4.2,4.2c0.1,5.2,0,10.3,0,15.5c0,2.7,1.3,3.9,4,3.9c8.6,0,17.3,0,25.9,0c2.7,0,4-1.2,3.9-3.9
		c0-5.2-0.1-10.3,0-15.5c0-2.9-1.3-4.2-4.2-4.2C747.5,470.2,743.4,470.2,739.2,470.2z M778.5,493.7c4.5,0,9,0,13.5,0
		c2.7,0,4-1.2,4-3.9c0-5.3,0.2-10.7-0.2-15.9c-0.1-1.3-2.3-3.5-3.5-3.5c-8.8-0.3-17.6-0.3-26.4,0c-1.3,0-3.4,2.2-3.5,3.5
		c-0.4,5.3-0.1,10.6-0.2,15.9c0,2.7,1.3,3.9,4,3.9C770.2,493.6,774.4,493.7,778.5,493.7z"/>
</g>
</svg>
