<?xml version="1.0" encoding="utf-8"?>
<!-- Generator: Adobe Illustrator 21.1.0, SVG Export Plug-In . SVG Version: 6.00 Build 0)  -->
<svg version="1.1" id="Layer_1" xmlns="http://www.w3.org/2000/svg" xmlns:xlink="http://www.w3.org/1999/xlink" x="0px" y="0px"
	 viewBox="0 0 1920 1200" style="enable-background:new 0 0 1920 1200;" xml:space="preserve">
<g>
	<path d="M1090.6,596c3.8,0.2,7.5,0.6,11.1,0.4c1.3-0.1,2.9-1.5,3.8-2.7c1.3-1.7,1.8-4.3,3.4-5.4c1.8-1.3,4.4-2,6.6-1.9
		c1,0.1,2.5,2.9,2.4,4.4c-0.2,4.3,1.9,5.5,5.6,5.7c5.4,0.2,10.2-0.3,12-6.7c1.1-3.8,4.6-4.7,7.7-3.4c1.5,0.6,2,3.8,2.7,5.9
		c0.4,1.2,0.4,2.5,0.6,3.9c3.4,0,6.6,0.4,9.7-0.1c2-0.4,3.9-1.8,5.4-3.3c1.3-1.2,1.5-3.8,2.8-4.6c2.1-1.2,4.7-1.8,7.2-1.8
		c0.8,0,2.2,2.8,2.2,4.2c-0.3,5.1,2.3,6.2,6.8,6.1c4.7,0,8.6-0.7,10-5.9c0.3-1.1,0.9-2.5,1.8-2.9c2.2-0.9,4.6-1.8,6.8-1.5
		c1.1,0.1,2.5,2.9,2.5,4.5c-0.1,4.2,1.1,5.5,5.6,5.6c6.1,0.2,9.9-1.5,11.9-7.2c1.3-3.6,4.5-4,7.5-3c1.3,0.4,2.5,2.7,2.9,4.3
		c0.6,2.4-0.1,5.1,3.6,5.5c4.1,0.5,8.4,1.5,11.4-2.5c1.2-1.6,1.6-4,3.1-5c2-1.3,4.6-2.1,7-2.1c0.8,0,2.3,3,2.3,4.5
		c0,4,1.7,4.9,5.4,5.1c5.8,0.3,10.5-0.6,12.6-6.9c1.1-3.3,4.3-4,7-2.9c1.5,0.6,2.7,3.3,2.8,5.2c0.3,3.2,1.4,4.3,4.6,4.4
		c5.9,0.3,11.1,0.3,13.7-6.8c0.6-1.6,4.5-2.6,7-2.8c0.8-0.1,2.5,3.3,2.7,5.2c0.3,3.3,1.6,4.2,4.7,4.3c6,0.4,11.2,0,13.5-7.1
		c1.1-3.5,4.6-3.5,7.2-2.6c1.3,0.5,2.6,3.1,2.7,4.9c0.2,3.4,1.4,4.4,4.8,4.8c6.2,0.7,10.8-0.4,13.1-6.9c1.2-3.4,4.4-3.9,7-2.8
		c1.5,0.6,2.9,3.3,3,5.2c0.3,3.4,1.7,4.4,5,4.6c5.8,0.4,10.5-0.3,12.6-6.8c1.1-3.4,4.2-4.1,6.9-3c1.5,0.6,2.8,3.3,2.9,5.2
		c0.2,3.5,1.6,4.5,4.9,4.7c6,0.3,11.2-0.1,13.4-7.1c1.1-3.4,4.4-3.7,7.1-2.7c1.3,0.5,2.5,3.2,2.5,5c0.1,3.5,1.6,4.5,4.9,4.7
		c5.8,0.4,10.9,0,13.1-6.7c1.2-3.5,4.6-4.1,7.5-3c1.3,0.5,2.4,3.3,2.5,5c0.1,3.6,1.7,4.4,4.9,4.6c5.9,0.4,10.7,0.1,13.2-6.7
		c0.6-1.7,4.5-2.7,6.9-2.9c0.8-0.1,2.7,3.2,2.8,5.1c0.2,3.5,1.7,4.5,5,4.6c5.9,0.3,10.9-0.1,13-6.9c1.1-3.5,4.4-3.8,7-2.8
		c1.5,0.6,2.8,3.3,2.9,5.1c0.2,3.5,1.7,4.4,5,4.7c5.7,0.4,10.5,0,12.6-6.5c1.1-3.5,4.4-4.5,7.3-3.3c1.6,0.7,2.9,3.6,3.1,5.7
		c0.4,4,2.8,3.9,5.6,3.9c2.8,0,5.2,0.1,5.6-3.9c1.1-11.2,6.5-15.5,17.7-15.4c20.5,0.2,40.9,0.4,61.4,0.1
		c13.8-0.2,24.3,5.2,29.7,17.8c6.1,14.3,3.5,34.3-12.1,42.6c-3.9,2.1-8.7,3.3-13.2,3.4c-16.5,0.6-32.9,0.8-49.4,0.9
		c-7.6,0-15.5,0.7-20.2-7.8c-0.8-1.4-4.5-1.5-6.9-1.5c-28.1-0.1-56.3-0.1-84.4-0.1c-43,0-86,0-129-0.1c-24.6-0.1-49.1-0.6-73.7-0.6
		c-17.2,0-34.4,0.5-51.6,0.5c-21.8,0-43.7-0.6-65.5-0.5c-26.5,0-53.1,0.5-79.6,0.7c-35.6,0.2-71.2,0-106.7,0.2
		c-16.2,0.1-32.4,1.1-48.6,1.3c-14.6,0.2-29.2-0.2-43.8-0.2c-14.4,0-28.9,0.2-43.3,0.3c-10.8,0-21.6-0.1-32.4-0.1
		c-8,0-15.9,0.3-23.9,0.3c-5.9,0-6.6-0.8-6.6-6.7c0-8.3,0-16.7,0-25c0-3.1-0.1-6.1,4.3-6.5c1-0.1,2-1.5,2.8-2.6
		c1.1-1.5,1.5-3.7,2.9-4.6c2-1.3,4.6-2.1,7-2.1c0.8,0,2.4,3,2.3,4.5c-0.2,4.8,1.8,5.9,6.3,6c5.3,0.1,9.2-1,11.2-6.6
		c0.6-1.8,3-3.6,4.9-4.1c3.3-0.9,6,0.1,5.7,4.5c-0.2,2.6-0.1,5.2,3.4,5.6c4,0.4,8.3,2,11.4-2.1c1.3-1.7,1.8-4.4,3.4-5.5
		c2.1-1.4,4.9-2.1,7.4-2.3c0.7,0,2.3,3,2.2,4.6c-0.2,4.6,1.5,6,6.1,6c5.4-0.1,9.1-1.3,11.2-6.7c0.7-1.8,3.3-3.6,5.4-4.1
		c3.3-0.9,5.1,0.8,5.4,4.6c0.2,2.1,1.6,5.7,2.6,5.7c4,0.2,8.8,2.4,12-2.3c1.2-1.8,1.7-4.4,3.2-5.5c1.9-1.4,4.6-2.1,6.9-2.2
		c0.8,0,1.7,2.9,2.5,4.5c0.9,1.9,1.5,5.5,2.4,5.5c4.2,0.2,9.1,2.4,12.5-2c1.4-1.8,1.9-4.6,3.6-5.9c1.8-1.4,4.6-2.1,7-2.1
		c0.8,0,1.6,2.9,2.4,4.6c0.9,1.9,1.6,5.5,2.4,5.5c4.2,0,9.1,2.4,12.5-2.1c1.4-1.8,1.9-4.6,3.6-5.9c1.9-1.4,4.6-2,7-2
		c0.8,0,2.3,3,2.2,4.6c-0.3,4.8,1.8,5.7,6.2,5.9c5.5,0.2,9.5-0.9,11.2-6.6c0.2-0.6,0.5-1.5,1-1.7c2.3-1,4.7-2.3,7-2.3
		c0.9,0,2,3,2.7,4.8c0.5,1.3,0.3,2.9,0.4,4.7c4.1,0,8,0.6,11.6-0.2c2.1-0.5,3.4-3.7,5.3-5.3c1.8-1.6,3.8-3.5,6-4.1
		c2.8-0.8,4.5,0.9,4.8,4.1c0.2,1.9,1.7,5.3,2.6,5.4c4.2,0,9.1,2.8,12.4-2c1.2-1.8,1.8-4.3,3.4-5.5c1.8-1.3,4.5-1.8,6.7-1.7
		c1,0,2.3,2.5,2.6,4c0.4,2.7,0,5.4,3.9,5.8c4.1,0.4,8.4,1.5,11.4-2.7c1.3-1.7,1.7-4.4,3.3-5.5c1.8-1.3,4.5-1.7,6.7-1.6
		c0.8,0,2.3,2.8,2.1,4.2c-0.6,5.3,2.2,5.6,6.5,5.9c5.4,0.4,9.1-0.6,10.9-6c1.3-3.7,3.9-5.3,7.8-4.5c4.3,0.9,2.4,4.4,2.9,6.9
		C1090.4,594,1090.5,595,1090.6,596z"/>
	<path d="M713.8,518.8c-7.2,0.5-14.5,1.4-21.7,1.4c-120.3,0.1-240.7,0.1-361,0.1c-7.5,0-7.5-0.1-7.3-7.5c0.1-2.5,0.3-5,0.4-6.4
		c1,1.2,2.4,4.3,3.9,4.3c3.9,0,9,2.6,11.6-2.9c1.3-2.7,3.1-4,6.3-3.9c2.9,0.1,4.4,1.1,4.3,4.1c-0.2,2.9,1.1,3.8,4,3.4
		c2.3-0.3,4.8,0.4,6.9-0.2c2.3-0.6,5.1-1.6,6.3-3.4c1.9-3,3.9-4.1,7.3-3.9c3.4,0.2,3.3,2.6,3.6,4.9c0.1,0.6,0.5,1.3,1,1.7
		c3,2.6,14.5,0.7,16.3-2.9c1.5-3.1,3.7-3.8,6.9-3.7c3.3,0.1,3.5,2.3,3.9,4.7c0.1,0.9,0.8,1.8,1.6,2.3c3.6,2.5,13.5,0.3,15.6-3.6
		c1.7-3.3,4.5-4.2,7.5-3.2c1.4,0.5,2.2,3,3.1,4.6c0.5,0.8,0.6,2,1.3,2.5c3,2.3,13.6-0.5,16-3.6c1.3-1.7,3.6-3.1,5.7-3.7
		c2.7-0.7,4.5,0.7,4.3,3.8c-0.2,3.4,1.7,4.3,4.7,4c2.1-0.2,4.3-0.5,6.5-0.4c3.2,0.2,5.5-0.8,6.6-3.9c1.2-3.2,3.7-3.8,6.9-3.6
		c3.5,0.3,3,2.8,3.4,5.1c0.2,0.9,1.1,2.4,1.8,2.5c3.3,0.2,6.6-0.3,9.9,0c4.4,0.5,4.6-3.4,6.8-5.3c1.5-1.4,4.4-2,6.6-1.9
		c1,0.1,1.9,2.7,2.8,4.3c0.5,0.9,0.8,2.8,1.4,2.9c3.1,0.4,6.3,0,9.4,0.5c4.1,0.6,5.2-2.1,7.2-4.7c1.3-1.7,4.2-2.8,6.5-3
		c1.1-0.1,2.4,2.6,3.5,4.1c0.7,0.9,0.9,2.3,1.7,2.8c3.9,2.6,13.5,0.4,15.8-3.8c1.7-3.1,4-3.6,7-3.4c3.4,0.2,3.2,2.7,3.5,5
		c0.1,0.8,0.4,1.7,0.9,2.2c2.3,2.2,13.7,0.4,15.6-2.2c1.2-1.7,2.4-3.8,4.2-4.6c3.8-1.7,6.2,0,7.2,4.3c0.3,1,1,2.7,1.6,2.7
		c2.9,0.2,6-0.6,8.8-0.1c3.6,0.6,5.7-0.6,6.9-3.9c1.1-3,3.5-3.6,6.5-3.5c3,0.1,3.5,1.9,3.7,4.3c0.1,0.6,0.4,1.3,0.9,1.7
		c2.4,2.3,14.9,0.8,16.5-2.2c1.6-2.9,3.5-4,6.8-3.9c3.4,0.2,2.9,2.8,4,4.7c0.7,1.3,3.2,2.1,4.9,2.1c10.7,0.2,21.4-0.6,32,0.3
		c7,0.6,13.8,3.7,20.7,5.6C714.1,517.3,713.9,518,713.8,518.8z"/>
</g>
</svg>
