<?xml version="1.0" encoding="utf-8"?>
<!-- Generator: Adobe Illustrator 21.1.0, SVG Export Plug-In . SVG Version: 6.00 Build 0)  -->
<svg version="1.1" id="Layer_1" xmlns="http://www.w3.org/2000/svg" xmlns:xlink="http://www.w3.org/1999/xlink" x="0px" y="0px"
	 viewBox="0 0 960 600" style="enable-background:new 0 0 960 600;" xml:space="preserve">
<g>
	<path d="M397.5,425.6c-31.5,0-63,0-94.5,0c-0.7,0-1.4,0-2-0.2c-5.3-2.1-10.8-3.9-15.9-6.7c-5.3-2.9-6.9-8.2-6.2-14
		c0.6-5.1,3.3-8.9,8.1-10.8c3.6-1.5,7.4-2.7,11.1-3.7c24.3-6.7,48.9-12.1,73.9-14.6c21.4-2.2,42.9-1.7,64.3,1.1
		c23.6,3.2,46.6,8.7,69.3,16.1c5.7,1.8,10.1,7,10.4,12.3c0.4,7.3-2.6,12.2-9.5,15.4c-3.7,1.7-7.5,3.2-11.4,4.5
		c-1.4,0.5-3.1,0.6-4.7,0.6C459.5,425.6,428.5,425.6,397.5,425.6C397.5,425.6,397.5,425.6,397.5,425.6z"/>
</g>
</svg>
