<?xml version="1.0" encoding="utf-8"?>
<!-- Generator: Adobe Illustrator 21.1.0, SVG Export Plug-In . SVG Version: 6.00 Build 0)  -->
<svg version="1.1" id="Layer_1" xmlns="http://www.w3.org/2000/svg" xmlns:xlink="http://www.w3.org/1999/xlink" x="0px" y="0px"
	 viewBox="0 0 960 600" style="enable-background:new 0 0 960 600;" xml:space="preserve">
<g>
	<path d="M364.8,333.9c17.6,0,35.2-0.1,52.7,0c10.1,0.1,20.3,0.6,30.4,0.7c8.6,0.1,17.2,0,25.8,0c5.1,0,10.3,0.1,15.4,0.1
		c7.5,0,15.1-0.2,22.6-0.2c6.1,0,12.3,0.2,18.4,0.2c5.1,0,10.1-0.4,15.2-0.4c2,0,4,0.4,5.9,0.8c19.4,4.3,38.9,8.6,58.3,13
		c13.1,2.9,26.2,5.9,39.3,8.7c2.5,0.5,3.1,1.7,3,4.1c-0.2,5,0.1,10-0.1,14.9c-0.1,1.7,0.7,2.4,1.9,3.1c5.7,3.3,11.4,6.6,17.1,9.8
		c1.9,1,2.8,2.3,2.7,4.5c-0.1,3.9,0,7.8,0,11.7c0,0.7-0.2,1.5-0.5,2.1c-1.4,3-2.1,3.1-4.8,1.3c-8.4-5.6-16.8-11.1-25.2-16.6
		c-0.7-0.5-1.7-0.7-2.6-0.7c-13.5,0-27,0.1-40.4,0.1c-7.9,0-15.8,0.2-23.7-0.2c-2.8-0.2-5.8-1.6-8.3-3.1
		c-9.3-5.3-18.6-10.7-27.7-16.5c-4.2-2.7-8.7-3.3-13.4-3.3c-72.1,0-144.3,0-216.4,0.1c-3.3,0-3.5-0.3-3.5-3.5c0.2-9,0.3-18,0.3-26.9
		c0-3.7,0.1-3.8,3.7-3.8C329,333.9,346.9,333.9,364.8,333.9z M658.7,384.7c0,3.9,0,7.3,0,10.7c0,0.5,0.2,1.1,0.6,1.3
		c3.5,2.4,7.1,4.7,11.2,7.5c0-4.4,0-8.1,0-11.7c0-0.5-0.4-1.2-0.9-1.4C666.1,389,662.6,387,658.7,384.7z M655.5,394.1
		c0-3-0.2-5.9,0.1-8.7c0.2-2.5-1-3.4-3.5-3.9c0,2.6,0.2,5-0.1,7.4C651.8,391.6,652.8,393.2,655.5,394.1z"/>
</g>
</svg>
