<?xml version="1.0" encoding="utf-8"?>
<!-- Generator: Adobe Illustrator 21.1.0, SVG Export Plug-In . SVG Version: 6.00 Build 0)  -->
<svg version="1.1" id="Layer_1" xmlns="http://www.w3.org/2000/svg" xmlns:xlink="http://www.w3.org/1999/xlink" x="0px" y="0px"
	 viewBox="0 0 1920 1200" style="enable-background:new 0 0 1920 1200;" xml:space="preserve">
<g>
	<path d="M795,851.1c-63,0-126,0-188.9,0c-1.3,0-2.8,0.1-4-0.4c-10.6-4.3-21.7-7.9-31.7-13.3c-10.6-5.8-13.8-16.3-12.5-27.9
		c1.2-10.2,6.6-17.8,16.2-21.7c7.2-2.9,14.7-5.4,22.2-7.4c48.6-13.4,97.7-24.1,147.9-29.2c42.9-4.4,85.7-3.5,128.5,2.3
		c47.2,6.4,93.3,17.4,138.5,32.1c11.4,3.7,20.2,14.1,20.7,24.5c0.8,14.7-5.1,24.5-19.1,30.8c-7.4,3.4-15.1,6.3-22.8,9
		c-2.9,1-6.2,1.1-9.3,1.1C919,851.2,857,851.2,795,851.1C795,851.2,795,851.2,795,851.1z"/>
</g>
</svg>
