<?xml version="1.0" encoding="utf-8"?>
<!-- Generator: Adobe Illustrator 21.1.0, SVG Export Plug-In . SVG Version: 6.00 Build 0)  -->
<svg version="1.1" id="Layer_1" xmlns="http://www.w3.org/2000/svg" xmlns:xlink="http://www.w3.org/1999/xlink" x="0px" y="0px"
	 viewBox="0 0 960 600" style="enable-background:new 0 0 960 600;" xml:space="preserve">
<g>
	<path d="M300.6,255.6c2.5,0,4.7,0.1,6.8-0.1c0.6-0.1,1.1-1.1,1.6-1.8c1.7-2.6,4.1-2.5,5.6,0.2c0.2,0.3,0.5,0.7,0.8,0.9
		c1.9,1,6.6,0,7.9-1.7c1.5-1.9,3.7-1.5,4.9,0.5c0.4,0.7,1.6,1.3,2.5,1.3c5.2,0.1,10.3,0,15.5,0.1c1.6,0,3.3,0.4,4.8,1
		c9.1,3.7,18.2,7.4,27.3,11.1c1.4,0.6,2.9,0.8,4.2,1.4c3,1.5,4.9,5.8,4.4,9.4c-0.6,4-3,6.3-6.6,7.6c-6.6,2.4-13,5.1-19.5,7.7
		c-1.4,0.6-2.9,1-4.1,1.8c-5.8,3.5-12.2,2.9-18.5,2.9c-9.6,0-19.1,0.1-28.7,0.1c-7.2,0-14.3,0-21.5,0c-11.6,0-23.3,0-34.9-0.1
		c-9.7,0-19.5-0.1-29.2,0c-7.9,0-15.8,0.3-23.7,0.3c-10.3,0-20.6-0.2-30.9-0.2c-1.5,0-3,0.5-4.7,0.7c0.6,1.8,1.6,3.1,3.6,3.9
		c25.7,10.5,51.3,21,77,31.5c1.7,0.7,3.3,1.1,5.4,1c2.4-0.1,4.9,1.3,7.3,2.2c11.6,4.8,23.2,9.6,34.8,14.4c5.4,2.2,10.7,4.6,16,6.9
		c0.5,0.2,1,0.3,1.4,0.4c2.4,0.6,3.6,2.5,3.3,5.1c-0.3,2.2-1.9,3.9-4.2,3.6c-2.2-0.2-4.4-0.8-6.5-1.7c-11.4-4.5-22.7-9.1-34-13.7
		c-5.7-2.3-11.7-4.2-16.9-7.3c-19.8-11.6-41.8-18-62.5-27.3c-7.9-3.5-16-6.7-24-9.9c-0.8-0.3-1.9-0.7-2.6-0.3
		c-2.3,1.1-4.3,0.4-6.5-0.5c-6.9-2.8-13.7-5.6-20.7-8.2c-1.2-0.5-2.6-0.6-3.9-0.6c-6-0.2-12-0.1-18-0.6c-2.3-0.2-4.6-1.7-6.8-2.9
		c-1.4-0.7-2.4-2.1-3.7-2.9c-6.4-3.8-8.9-9.3-7.9-16.6c0.2-1.8,0.2-3.7,0-5.5c-0.3-3.7,1-6.6,3.7-9.1c2.9-2.6,5.6-5.6,8.7-7.8
		c2-1.4,4.7-1.9,7.1-2.7c0.8-0.3,1.8-0.1,2.7-0.1c6.8,0,6.8,0,6.8-6.9c0-2.5,0.1-5,0-7.5c-0.1-2.4,0.8-3.2,3.2-3.2
		c17.9,0.1,35.8,0,53.7,0c70.2,0,140.3,0,210.5,0c8.5,0,17,0.1,25.5-0.1c2.6,0,3.3,0.9,3.3,3.3c-0.1,3.9-0.1,7.8,0.1,11.7
		c0.1,2.5-0.8,3.3-3.3,3.3c-20.4-0.1-40.8,0-61.2,0c-63.1,0-126.1,0-189.2,0c-0.9,0-1.9-0.2-2.7,0.1c-0.7,0.2-1.6,1.1-1.5,1.7
		c0,0.8,0.6,2,1.3,2.2c2.5,1,4.4,0,6.4-2.1c0.7-0.7,2.2-1,3.3-1c0.5,0,1,1.2,1.5,1.8c0.2,0.3,0.2,0.8,0.5,1.1
		c1.2,1.2,7.3,0.4,8.2-1.2c0.8-1.5,1.8-2,3.4-1.9c1.6,0.1,1.8,1.1,2,2.3c0,0.4,0.3,0.8,0.6,1c1.6,1.1,6.9,0.1,7.9-1.5
		c0.8-1.4,2-1.8,3.5-1.8c1.6,0.1,1.8,1.2,1.9,2.4c0,0.3,0.2,0.6,0.4,0.9c1.2,1.3,7,0.6,7.8-1c0.7-1.3,1.5-2.3,3.2-2.3
		c1.5,0.1,2.4,0.4,2.4,2.1c0,1.7,1,2.1,2.5,1.9c0.7-0.1,1.3-0.2,2-0.1c1.9,0.4,3.3-0.3,4.1-2c0.8-1.7,2.1-1.9,3.7-1.8
		c1.7,0.1,1.6,1.3,1.8,2.5c0,0.4,0.2,0.8,0.5,1.1c1,0.9,6.8-0.4,7.7-1.4c0.8-0.9,1.8-1.8,2.9-2.1c1.4-0.4,2.5,0.3,2.4,2
		c-0.1,1.5,0.6,1.9,2,1.7c1.2-0.2,2.5,0,3.7,0c1.5,0.1,2.5-0.5,3.1-1.9c0.6-1.6,1.9-1.9,3.4-1.8c1.7,0.1,1.7,1.3,1.8,2.5
		c0,0.4,0.4,1.2,0.6,1.2c1.6,0.1,3.2-0.1,4.7,0.2c2.1,0.4,2.6-1.1,3.6-2.3c0.7-0.8,2.1-1.3,3.3-1.4c0.5,0,1.1,1.2,1.7,1.9
		c0.5,0.6,0.9,1.4,1.6,1.6c2.9,1,5.4-0.1,7.4-2.3c0.7-0.8,2.3-1.1,3.5-1.2c0.5,0,1,1.3,1.5,2.1c0.2,0.4,0.2,1.1,0.5,1.3
		c1.3,1.2,7-0.1,8-1.6c0.6-0.8,1.4-1.7,2.3-1.9C300.1,251.3,300.7,253.1,300.6,255.6z M200.5,235.1c-2.4,0-4.8,0-7.2,0
		c-1.5,0-2.1,0.6-2.1,2.1c0.1,2.5,0.1,5,0,7.5c0,1.6,0.7,2.2,2.3,2.2c4.7,0,9.5,0,14.2,0c1.6,0,2.2-0.7,2.2-2.3c0-2.4-0.1-4.8,0-7.2
		c0.1-1.8-0.8-2.3-2.4-2.3C205.1,235.1,202.8,235.1,200.5,235.1z M179,246.8c2.4,0,4.8-0.1,7.2,0c1.6,0,2.2-0.7,2.2-2.2
		c-0.1-2.5-0.1-5,0-7.5c0-1.5-0.6-2.1-2.1-2.1c-4.7,0-9.5,0-14.2,0c-1.5,0-2.1,0.7-2.1,2.1c0,2.5,0,5,0,7.5c0,1.6,0.7,2.2,2.3,2.2
		C174.5,246.8,176.8,246.8,179,246.8z M221.6,246.8c2.3,0,4.7-0.1,7,0c1.9,0.1,2.5-0.7,2.5-2.5c-0.1-2.2-0.1-4.5,0-6.7
		c0.1-1.7-0.5-2.6-2.4-2.6c-4.6,0.1-9.1,0.1-13.7,0c-1.5,0-2.3,0.5-2.3,2.2c0.1,2.5,0.1,5,0,7.5c0,1.6,0.7,2.2,2.3,2.2
		C217.1,246.8,219.3,246.8,221.6,246.8z M243.2,246.8c2.3,0,4.6,0,7,0c1.5,0,2.3-0.5,2.3-2.1c-0.1-2.5-0.1-5,0-7.5
		c0-1.6-0.7-2.2-2.3-2.2c-4.6,0-9.3,0-13.9,0c-1.6,0-2.2,0.7-2.2,2.3c0.1,2.4,0.1,4.8,0,7.2c-0.1,1.7,0.7,2.4,2.4,2.3
		C238.7,246.8,240.9,246.8,243.2,246.8z M264.6,246.8c2.3,0,4.7,0,7,0c1.5,0,2.3-0.5,2.3-2.1c-0.1-2.5-0.1-5,0-7.5
		c0-1.6-0.7-2.2-2.3-2.2c-4.6,0-9.1,0-13.7,0c-1.6,0-2.5,0.5-2.4,2.3c0.1,2.4,0.1,4.8,0,7.2c0,1.8,0.8,2.3,2.4,2.3
		C260.2,246.8,262.4,246.8,264.6,246.8z M307.1,246.8c2.4,0,4.8,0,7.2,0c1.5,0,2.1-0.6,2.1-2.1c0-2.6,0.1-5.2-0.1-7.7
		c-0.1-0.7-1.2-1.9-1.9-1.9c-4.8-0.2-9.6-0.1-14.4-0.1c-1.4,0-2,0.6-1.9,2c0,2.6,0,5.1,0,7.7c0,1.5,0.6,2.1,2.1,2.1
		C302.5,246.8,304.8,246.8,307.1,246.8z M328.6,246.8c2.4,0,4.8,0,7.2,0c1.5,0,2.1-0.6,2.1-2.1c0-2.6,0-5.1,0-7.7c0-1.4-0.6-2-2-2
		c-4.8,0-9.6-0.1-14.4,0.1c-0.7,0-1.8,1.2-1.9,1.9c-0.2,2.6-0.1,5.1-0.1,7.7c0,1.5,0.6,2.1,2.1,2.1
		C324,246.8,326.3,246.8,328.6,246.8z M157.6,246.8c2.4,0,4.8,0,7.2,0c1.5,0,2.1-0.6,2.1-2.1c0-2.5,0-5,0-7.5c0-1.6-0.7-2.2-2.2-2.2
		c-4.6,0-9.3,0-13.9,0c-1.6,0-2.2,0.7-2.2,2.2c0.1,2.5,0,5,0,7.5c0,1.5,0.6,2.1,2.1,2.1C153,246.8,155.3,246.8,157.6,246.8z
		 M285.7,246.8C285.7,246.8,285.7,246.8,285.7,246.8c2.3,0,4.7,0,7,0c1.6,0,2.3-0.6,2.3-2.2c0-2.5,0-5,0-7.5c0-1.5-0.6-2.1-2.1-2.1
		c-4.7,0-9.5,0-14.2,0c-1.5,0-2.1,0.7-2,2.2c0,2.5,0,5,0,7.5c0,1.5,0.6,2.1,2.1,2.1C281.1,246.8,283.4,246.8,285.7,246.8z
		 M136.3,246.8c2.3,0,4.7,0,7,0c1.4,0,2.2-0.5,2.2-2c0-2.6,0-5.2,0-7.7c0-1.5-0.8-2-2.2-2c-4.6,0-9.1,0-13.7,0c-1.5,0-2.1,0.7-2,2.2
		c0,2.5,0.1,5,0,7.5c0,1.7,0.7,2.2,2.3,2.1C132,246.8,134.2,246.8,136.3,246.8z M409.4,235.1c-2.2,0-4.3,0-6.5,0
		c-1.5,0-2.3,0.5-2.3,2.2c0.1,2.5,0.1,5,0,7.5c0,1.7,0.7,2.2,2.3,2.1c4.2-0.1,8.5,0,12.7,0c1.5,0,2.3-0.5,2.3-2.1
		c-0.1-2.5-0.1-5,0-7.5c0-1.6-0.7-2.2-2.3-2.2C413.5,235.1,411.5,235.1,409.4,235.1z M349.4,235.1c-2.2,0-4.3,0-6.5,0
		c-1.5,0-2.3,0.5-2.3,2.2c0.1,2.5,0,5,0,7.5c0,1.4,0.6,2.2,2.1,2.1c4.4,0,8.8,0,13.2,0c1.5,0,2-0.8,2-2.2c0-2.4-0.1-4.8,0-7.2
		c0-1.7-0.6-2.5-2.3-2.4C353.6,235.1,351.5,235.1,349.4,235.1z M369.6,235.1c-2.2,0-4.3,0-6.5,0c-1.5,0-2.1,0.6-2.1,2.1
		c0,2.6,0,5.2,0,7.7c0,1.4,0.6,1.9,2,1.9c4.3,0,8.6,0,13,0c1.4,0,2-0.6,2-1.9c0-2.6,0-5.2,0-7.7c0-1.5-0.6-2.1-2.1-2.1
		C373.8,235.1,371.7,235.1,369.6,235.1z M389.3,246.8c2.2,0,4.5,0,6.7,0c1.4,0,2-0.6,2-1.9c0-2.7,0.1-5.3-0.1-8
		c-0.1-0.7-1.1-1.7-1.8-1.8c-4.4-0.2-8.8-0.2-13.2,0c-0.6,0-1.7,1.1-1.8,1.8c-0.2,2.6-0.1,5.3-0.1,8c0,1.4,0.6,2,2,1.9
		C385.1,246.8,387.2,246.8,389.3,246.8z"/>
</g>
</svg>
