<?xml version="1.0" encoding="utf-8"?>
<!-- Generator: Adobe Illustrator 21.1.0, SVG Export Plug-In . SVG Version: 6.00 Build 0)  -->
<svg version="1.1" id="Layer_1" xmlns="http://www.w3.org/2000/svg" xmlns:xlink="http://www.w3.org/1999/xlink" x="0px" y="0px"
	 viewBox="0 0 1920 1200" style="enable-background:new 0 0 1920 1200;" xml:space="preserve">
<g>
	<path d="M124.9,468.5c1,2.2,1.8,4.4,2.9,6.6c1.2,2.5,2.3,5.3,4,7.3c3.5,4,7.4,3.3,10.5-0.9c3.5-4.6,4.5-9.1,3.6-15.1
		c-0.8-6,0.3-12.7,2.4-18.4c3.3-9.3,10.3-16.3,18.4-22.7c0,1.9,0,3.7,0,5.6c0.1,2.5-0.3,5.1,0.4,7.3c1.2,3.7,3.5,7.1,7.9,7.2
		c2.9,0.1,8.4-5.9,8.7-9.1c2.1-18.2,20.1-31,34.2-35.5c0.6-0.2,1.2,0,2.8,0c-1.7,4.5-4.2,8.5-4.4,12.6c-0.2,4,2,8,3.1,11.8
		c6.7-0.5,10.7-2.9,13.3-8.1c6.7-13.5,31.2-20,43.5-18c0.4,0.1,0.8,0.5,2.1,1.3c-1.7,1.9-3.1,3.8-4.8,5.3
		c-3.9,3.2-6.3,11.9-4.2,16.3c1.3,2.7,8.1,3.5,11.1,1c6.4-5.4,13.6-8.5,21.9-8.4c4.8,0.1,9.6,0.6,14.2,1.7
		c5.4,1.3,10.5,3.4,15.8,5.2c0.1,0.5,0.2,1,0.3,1.4c-2.4,1-4.7,2.3-7.2,3.1c-4.1,1.3-10.3,9.9-9.7,14c0.3,2.4,5.2,5,8.1,3.9
		c19.3-7,33.9,1.2,47,14.4c1,1,1.6,2.4,1.9,4.9c-2.5-0.3-5-0.4-7.4-0.9c-5.1-1.1-14.6,5.6-14.6,10.8c0,3.4,2.4,4.5,5.6,5.1
		c5.5,1,11.1,2.1,16.3,4.1c9.3,3.6,14,11.9,18.5,20.2c1.8,3.4,3.2,7,4.9,10.5c-0.4,0.4-0.8,0.7-1.1,1.1c-1.6-0.5-3.4-0.7-4.8-1.5
		c-5.2-2.7-15.1-1.4-18.9,2.6c-2,2.1-0.5,8.6,2.7,9.9c15.5,6.6,22.4,19.2,24.4,35.1c0.6,4.5,0.1,9,0.1,13.6
		c-0.6,0.2-1.2,0.4-1.8,0.7c-1.6-1.7-3.4-3.2-4.9-5c-2.9-3.6-14.9-6.4-18.4-3.7c-2.9,2.2-1.5,4.6,0.7,6.6c8,7.6,11.7,17.3,10.7,28
		c-0.8,8.8-3.4,17.3-5.3,26c-0.7,0.1-1.4,0.2-2.1,0.3c-1.2-2.3-2.7-4.5-3.5-7c-1.5-4.7-11.2-11.4-15.9-10.7c-2.5,0.4-5.8,7-4.6,9.8
		c9.2,21.8-4.4,40.6-16.1,51.2c-0.3,0.3-0.9,0.3-2.9,1.1c0-3.2-0.2-5.8,0.1-8.3c0.5-4.8-5.7-14.9-10-15.9c-2.5-0.6-6.2,3-6.5,6.8
		c-0.8,8.7-3.1,16.6-8.8,23.4c-5.6,6.7-19.7,15.5-28.5,16.7c1.1-3,1.8-5.6,3-7.9c2.2-4.1,0.5-15-3-17.6c-2.2-1.6-7.1,0.2-8.7,3.5
		c-5.9,12.8-16.5,19.5-29.8,21.8c-5.9,1-12.1,0.2-19.6,0.2c2.3-2.4,3.7-4.2,5.4-5.6c4.3-3.5,6.6-11.3,4.6-16.3
		c-1.2-2.9-8-4-11.1-1.4c-12.7,11.1-27.1,11.7-42.2,6.7c-3.5-1.1-6.6-3.3-9.9-5c0-0.6,0.1-1.2,0.1-1.8c2-0.8,4-1.9,6.1-2.5
		c4.7-1.3,10-8,9.9-12.6c-0.1-2.7-5.7-5.8-9.2-4.8c-20.3,6-35.1-3.1-48.3-17.2c-0.3-0.3-0.4-0.9-1-2.4c2.8-0.2,5.3-0.7,7.7-0.5
		c5.4,0.5,11.3-2.2,13.9-7c1.2-2.1-1.4-6.5-4.7-7.6c-1.6-0.5-3.2-0.7-4.9-0.9c-15.4-1.9-29.9-17.3-34.7-36.1c2.9,1,5.4,1.6,7.6,2.8
		c4.7,2.4,11.1,2,14.9-1.5c0.7-0.6,1.2-2.1,1-3c-0.8-4.9-1.7-9.5-7.1-12.2c-6.9-3.6-11.1-10-13.6-17.3c-3.1-8.9-4.9-18.1-4-27.6
		c0.4-0.3,0.9-0.6,1.3-0.8c1.8,1.7,3.7,3.3,5.3,5.2c3,3.7,9.7,5.7,14,4c2.9-1.2,2.9-6.3,0.9-10.1c-3-5.8-6.4-11.8-7.7-18.1
		c-2.2-11.2,3.1-21.3,6.2-31.7C123.7,468.6,124.3,468.5,124.9,468.5z"/>
</g>
</svg>
