<?xml version="1.0" encoding="utf-8"?>
<!-- Generator: Adobe Illustrator 21.1.0, SVG Export Plug-In . SVG Version: 6.00 Build 0)  -->
<svg version="1.1" id="Layer_1" xmlns="http://www.w3.org/2000/svg" xmlns:xlink="http://www.w3.org/1999/xlink" x="0px" y="0px"
	 viewBox="0 0 1920 1200" style="enable-background:new 0 0 1920 1200;" xml:space="preserve">
<g>
	<path d="M729.6,667.8c35.2,0,70.3-0.2,105.5,0.1c20.3,0.1,40.5,1.2,60.8,1.5c17.2,0.3,34.4,0,51.6,0.1c10.3,0,20.5,0.2,30.8,0.1
		c15.1-0.1,30.1-0.3,45.2-0.3c12.3,0,24.6,0.4,36.9,0.4c10.1-0.1,20.2-0.8,30.3-0.8c3.9,0,7.9,0.7,11.8,1.6
		c38.9,8.6,77.7,17.3,116.6,25.9c26.2,5.8,52.3,11.8,78.5,17.5c5,1.1,6.3,3.4,6.1,8.2c-0.3,10,0.1,19.9-0.2,29.9
		c-0.1,3.3,1.4,4.8,3.8,6.2c11.4,6.5,22.7,13.2,34.3,19.6c3.8,2.1,5.6,4.6,5.5,9c-0.2,7.8,0.1,15.6,0,23.4c0,1.4-0.4,3-1.1,4.3
		c-2.8,6-4.2,6.2-9.6,2.6c-16.8-11.2-33.6-22.3-50.5-33.3c-1.4-0.9-3.4-1.5-5.1-1.5c-27,0-53.9,0.2-80.9,0.2
		c-15.8,0-31.7,0.5-47.4-0.4c-5.7-0.3-11.5-3.3-16.6-6.2c-18.7-10.6-37.3-21.4-55.4-32.9c-8.5-5.4-17.3-6.7-26.8-6.7
		c-144.3,0-288.6,0.1-432.9,0.1c-6.6,0-7-0.6-6.9-7.1c0.3-18,0.5-35.9,0.7-53.9c0.1-7.3,0.2-7.6,7.5-7.6
		C658,667.8,693.8,667.8,729.6,667.8z M1317.3,769.5c0,7.8,0,14.6,0.1,21.3c0,0.9,0.4,2.2,1.1,2.6c7,4.8,14.1,9.5,22.3,14.9
		c0-8.9,0.1-16.1-0.1-23.4c0-1-0.9-2.3-1.7-2.8C1332.1,778.1,1325.1,774.1,1317.3,769.5z M1311.1,788.3c0-6-0.4-11.8,0.1-17.5
		c0.4-5-2-6.8-6.9-7.8c0,5.2,0.4,10.1-0.1,14.9C1303.6,783.2,1305.7,786.4,1311.1,788.3z"/>
</g>
</svg>
