<svg xmlns="http://www.w3.org/2000/svg" viewBox="0 0 730.79 149.09"><title>Asset 18</title><g id="Layer_2" data-name="Layer 2"><g id="Layer_1-2" data-name="Layer 1"><path d="M90.61,65.67q-30.14.18-60.28.21c-9.89,0-19.78,0-30.28,0,0-5.88-.13-11.32,0-16.75.26-8.66.83-17.3,1.06-26C1.51,9.47,2.74,12.42,2.74,0c0,0,238.9.07,253.2.46,14,.38,27.93.74,41.9.81,11.4.05,22.81-.43,34.22-.53C352.77.57,373.49.49,394.2.39,413.32.31,432.45.6,451.56.08A222,222,0,0,1,512.09,6.9c26.12,6.55,52.59,11.65,78.89,17.49,30.51,6.77,61,13.72,91.5,20.44,3.32.73,4.25,2.21,4.19,5.4-.17,9,.47,18-.23,27-.53,6.72,2.08,10.08,7.77,13,10.93,5.68,21.41,12.21,32.18,18.19,2.93,1.62,4.38,3.46,4.3,7-.19,8.13.46,16.31-.2,24.39-.26,3.21-3.09,6.21-4.74,9.31h-1c-1.92-1.54-3.74-3.24-5.78-4.6q-24.29-16.21-48.68-32.28a7.33,7.33,0,0,0-3.67-1.23c-5.94-.11-11.89,0-17.84,0-16.91.12-33.83.32-50.74.37-15.36.05-30.72.2-46.07-.17-7.68-.19-15.71,2-23-2.15-20.35-11.67-40.64-23.43-61-35.09-6.08-3.49-11.26-8.52-19.26-8.32-13.52.33-27.06-.35-40.59-.31-14.46.05-28.93.65-43.39.65-13.93,0-27.87-.65-41.8-.69-16.3,0-32.61-.07-48.89.51Zm635.86,74.18c0-9.25,0-17.33-.06-25.41a3.33,3.33,0,0,0-1.33-2.44c-7.66-4.52-15.4-8.92-24.07-13.91,0,8.58,0,16,.06,23.41a3.49,3.49,0,0,0,1.38,2.44C710.1,129.09,717.82,134.15,726.47,139.85Zm-29.8-20.38c0-6.57,0-12.66,0-18.75,0-5.8-2.14-8-9.33-8.73,0,4.81.46,9.6-.11,14.26C686.38,113.29,689.72,117,696.67,119.47Z"/></g></g></svg>