<svg xmlns="http://www.w3.org/2000/svg" viewBox="0 0 473 102"><title>Asset 20</title><g id="Layer_2" data-name="Layer 2"><g id="Layer_1-2" data-name="Layer 1"><path d="M429,102H45c-8.85-3.66-17.69-7.36-26.56-11-9.14-3.72-14.7-10.46-17.2-19.9A27,27,0,0,0,0,68q0-3,0-6a5.92,5.92,0,0,0,1-1.68c2.12-11.2,8.55-18.76,19.5-21.74,25-6.82,50-13.84,75.27-19.73,37.48-8.74,75.42-14.91,113.9-17.24C218.11,1.1,226.55.54,235,0h9c2.46.32,4.9.78,7.37.92C265.66,1.76,280,2,294.24,3.4c45.48,4.57,90,14.16,133.92,26.67,8.32,2.37,16.56,5,24.75,7.79C462.88,41.23,469,48.62,473,58V72c-5.17,12.17-14.81,19-27,23.1C440.22,97,434.66,99.68,429,102Z"/></g></g></svg>