<svg xmlns="http://www.w3.org/2000/svg" viewBox="0 0 888.59 62.32"><title>Asset 19</title><g id="Layer_2" data-name="Layer 2"><g id="Layer_1-2" data-name="Layer 1"><path d="M658,19.68c-2.49-.64-2.52-3.15-3.11-5.24-.5-1.77-1.26-4.24-2.6-4.84-2.55-1.13-4.48.47-5.88,3.06-3.65,6.73-9.26,9.06-16.66,6.74-1.13-.35-1.58-3-2.27-4.59-.76-1.77-1-4.64-2.21-5.15-2.8-1.16-5.19.07-6.81,3.16-3.42,6.53-9.51,8.86-16.73,6.67a3.92,3.92,0,0,1-2-2.76,44.88,44.88,0,0,1-.09-6.52c-4.93-1.88-7.5-.48-9.45,3.58-2.57,5.36-11,8.15-16.82,5.52-2-.78-2.1-2.33-2.38-4.64-.22-1.83-.87-4.59-2.1-5.11-2.88-1.22-5.17.19-6.74,3.26-3.13,6.15-9.83,8.65-16.53,6.12-1.23-.47-1.72-3-2.45-4.62s-.91-4.27-2.05-4.75c-2.61-1.09-4.88-.05-6.5,2.84-3.77,6.74-9,8.85-16.33,6.6-1.3-.4-2.1-2.76-2.91-4.33s-1-4.56-2.3-5.11c-3-1.3-5.1.47-6.61,3.46a13.57,13.57,0,0,1-16.65,6.21c-1.28-.49-1.6-3.41-2.43-5.18-.74-1.59-1.71-4.52-2.32-4.45-2,.21-5.1,1.11-5.57,2.49-2.54,7.56-8.09,8-14.67,7.56-3.54-.24-5.31-1.13-4.92-4.92a31,31,0,0,0-.22-4.79c-4.19-1.37-7.06-.91-8.94,3.21-1.05,2.31-2.67,5.56-4.59,6-3.94.93-8.28.53-12.38,0-.77-.1-1.12-3.24-1.76-4.94s-1-4.23-2.11-4.67c-2.56-1-4.9-.21-6.52,2.78-3.86,7.11-8.58,9.06-16.49,7-1.13-.29-2.33-2.06-2.65-3.36-.45-1.86-.11-3.91-.11-5.86-4.58-1.87-7.21-.7-9.19,3.37-2.64,5.42-11.34,8.44-16.77,5.74-1.18-.59-1.26-3.33-1.94-5s-.47-4.22-2.12-4.85c-2.11-.8-4.92,1.33-6,2.93-4.86,7.14-7.92,8.6-16.65,7.29-3.57-.54-2.52-3.15-3.11-5.24-.5-1.77-1.26-4.24-2.6-4.84-2.55-1.13-4.48.47-5.88,3.06-3.65,6.73-9.26,9.06-16.66,6.74-1.13-.35-1.58-3-2.27-4.59-.76-1.77-1-4.64-2.21-5.15-2.8-1.16-5.19.07-6.81,3.16-3.42,6.53-9.51,8.86-16.73,6.67a3.92,3.92,0,0,1-2-2.76,44.88,44.88,0,0,1-.09-6.52c-4.93-1.88-7.5-.48-9.45,3.58-2.57,5.36-11.28,8.08-16.82,5.52a3.75,3.75,0,0,1-1.59-2.66A59.38,59.38,0,0,1,265.1,10c-4.14-1.33-7.05-1.25-9,3-1.05,2.32-2.62,5.62-4.53,6.08-3.93,1-8.27.54-12.38.08-.84-.09-1.43-2.83-2.06-4.39-.72-1.78-.89-4.65-2.13-5.2-3-1.31-5.1.41-6.67,3.37h0C224.5,20,221,21.5,213,20.26c-3.55-.54-3.29-2.81-3.57-5.4-.21-1.95-.93-4.85-2.27-5.46-3-1.34-5.06.57-6.6,3.5-3.79,7.21-9,9.5-16.55,7-1.23-.41-1.64-3.35-2.4-5.13s-1.1-4.76-2.46-5.39c-2.7-1.24-4.77.49-6.24,3.28-3.33,6.31-8.92,9-16,7.44-1.32-.29-2.31-2.86-3.09-4.55-.94-2-.92-5.46-2.32-6.1-3.64-1.67-5.23.78-7,4.32s-7.81,7.46-15,6.62c-2.93-.58-3.29-2.81-3.57-5.4-.21-1.95-.93-4.85-2.27-5.46-3-1.34-5.06.57-6.6,3.5-3.79,7.21-9,9.5-16.55,7-1.23-.41-1.64-3.35-2.4-5.13S97,10.16,95.65,9.54c-2.7-1.24-4.77.49-6.24,3.28-3.33,6.31-8.92,9-16,7.44-1.32-.29-2.31-2.86-3.09-4.55-.94-2-.92-5.46-2.32-6.1-3.64-1.67-5.49,1.29-7,4.32-2.93,5.71-10.86,8.35-16.61,5.25-1.2-.64-1.22-3.36-1.93-5.06s-1.17-4-2.4-4.58c-2.47-1.06-4.92-.11-5.93,2.84-2.29,6.68-6.58,8.91-13.76,7.83-4.35-.65-6-1.84-5.46-6.05A25.59,25.59,0,0,0,14.7,10c-4.61-1.66-7.17-.43-9.19,3.67-1.81,3.68-3.62,5.67-5.51,6V53.86H191.86q37.6-.68,75.2-.75c34.44-.07,68.89.1,103.33.13q29.3,0,58.6-.06c27.07,0,54.15-.06,81.22-.18,15.69-.07,31.37-.53,47.06-.44,30.82.17,61.63.73,92.45.86,26.65.12,53.31-.22,80-.19q29.59,0,59.18.58a7.5,7.5,0,0,1,5.13,2.8c3.1,4.23,7.3,5.76,12.13,5.7,17.24-.23,34.47-.66,51.71-1,5.81-.1,11.49-.1,16.75-3.5,13-8.42,16.91-25,11.89-39C882.67,8.19,875,1,862.81.47,855.56.17,848.29.38,841,.34,826.09.25,811.15.29,796.21,0c-8.71-.16-17.56,2.3-16.88,13.74.36,6.09-4,5.49-8.16,5.76-4.75.31-5.62-1.9-5.44-6,.06-1.38-1.46-4-2.15-4a10.58,10.58,0,0,0-5.9,2.13c-1.43,1.18-1.9,3.47-3,5.1-.71,1-1.85,2.41-2.86,2.46-4.13.18-8.49.6-12.31-.57-1.3-.4-1.22-5.24-1.8-8a3,3,0,0,0-.51-.84c-4.2-1.54-6.9-.18-8.68,4-.88,2-2.41,5-4,5.27a30.54,30.54,0,0,1-12.76-.38c-1.27-.35-1.28-5.2-1.9-8a3.63,3.63,0,0,0-.56-.92c-4.15-1.45-6.83-.07-8.61,4-.88,2-2.4,5-4,5.26a30.34,30.34,0,0,1-12.76-.54c-1.34-.4-1.38-5.17-2-7.93a2.8,2.8,0,0,0-.55-.81c-4-1.49-6.87-.14-8.25,3.85C673.05,13.61,670.22,21.13,658,19.68Z"/></g></g></svg>