<svg xmlns="http://www.w3.org/2000/svg" viewBox="0 0 643.9 646.23"><title>Asset 17</title><g id="Layer_2" data-name="Layer 2"><g id="Layer_1-2" data-name="Layer 1"><path d="M177.22,575.26l.76,2.35c2-.65,1.78-.67,2-2.44.11-1,.74-2.63,1.51-2.89,2.42-.82,2.5-2.68,2.49-4.56,0-1.65-.48-3.28,0-5,.11-.38-.37-.94-.57-1.4a19.35,19.35,0,0,0,1.27-3.29c.34-1.7-.28-2.38-2-2.38a7.56,7.56,0,0,1-4.26-1.31c-4.15-2.7-8.32-5.37-12.45-8-3.64,1.25-7.2,2.67-10.87,3.72-17.48,5-34.62,3.65-51.45-3a119.17,119.17,0,0,1-32.24-19.6A185,185,0,0,1,53.28,510c-.37-.4-.71-.83-1-1.22.17-.23.24-.43.35-.45,4.1-.64,8.21-1.3,12.32-1.85a4.81,4.81,0,0,1,2.28.48c7,2.84,13.63,2.14,19.78-2.24a32.85,32.85,0,0,0,4.47-3.92c1-1,1.88-1.65,3.32-1.38a6,6,0,0,0,1.68,0c1.91-.19,3.44-.87,4.24-2.83.73-1.79,1.69-3.48,2.58-5.2.08-.14.52-.1.6-.24.26-.48.74-1.15.58-1.5a21.3,21.3,0,0,0-2.09-3.67c-3.29-4.62-6.64-9.2-10-13.84l-11.6-.63c.07-1.33.84-1,1.43-1.13.34-.07.89-.32.92-.55.05-.4-.11-1.11-.37-1.22-2.21-.89-3.44-3.61-6.27-3.36-.32,0-.69-.31-1-.51s-.59-.58-.76-.52c-2.29.74-4.1-1.72-6.39-.94-.18.06-.62-.19-.73-.4-.72-1.41-1.74-1.29-2.72-.45-1.17,1-2.13.84-3.16-.27.26-.36.76-.74.76-1.13a1.54,1.54,0,0,0-.79-1.09c-.84-.43-1.82-.6-2.66-1-1.56-.82-3.36-1.1-4.58-2.69-.5-.65-2-.51-3.43-.79a6,6,0,0,0-6.09-2.14,8.65,8.65,0,0,1-3.93,0,5.51,5.51,0,0,1-3.76-3.68,6.68,6.68,0,0,0-1.71-2.78c-1.09-1.12-2.16-2.25-3.3-3.44v-3.34c-1.54-1.65-2.39,0-3.42.41a6.56,6.56,0,0,1-4-6.73l-1.66-.31A36.76,36.76,0,0,1,21.49,430a2.74,2.74,0,0,0-2.85-2.18l1.53-1.19c-.06-.23,0-.53-.17-.66a13,13,0,0,0-3-2.58A4.57,4.57,0,0,1,14.75,421c-1.49-3-2.82-6-4.21-9.07-.07-.14-.14-.33-.26-.39-1.76-.84-1.49-2.45-1.43-4.07a3,3,0,0,1-1.94-2.65c-.12-1.18-1-2.27-1.48-3.42-.9-2.09-1.78-4.19-2.77-6.52.76.11,1.29.14,1.8.26,3.42.8,6.86,1.56,10.26,2.46A5.94,5.94,0,0,1,17.13,399c6.48,6,13.91,7.63,22.14,4.41,6-2.35,11.85-5.1,17.85-7.71-.08-.6-.11-1.07-.22-1.52-1.77-7.79-3.63-15.56-5.28-23.37a4.54,4.54,0,0,0-2.94-3.55,74.6,74.6,0,0,1-30.3-25.47,60.26,60.26,0,0,1-3.85-6.27,19.92,19.92,0,0,1-1.2-4.07c-.1-.38,0-1-.18-1.14-1.75-1.36-1.66-3.72-3-5.3-.28-.34-.62-.65-.9-1s-.71-.7-.81-1.12c-.32-1.42-.51-2.88-.79-4.31A6,6,0,0,0,7,316.29c-1.59-2.2-1.49-4.71-1.7-7.23C5,306,4.5,302.89,4,299.81c-.24-1.53-.13-3.24-1.76-4.2.18-1.69-1.54-3.09-.43-5a5.29,5.29,0,0,0-.8-5.82c-.9-1.19-1-2.09-.17-3.11a2.37,2.37,0,0,0,.43-2.6,13.13,13.13,0,0,1-.5-4,7.39,7.39,0,0,0-.3-3.45c-.34-.75.19-2,.48-2.94a6.89,6.89,0,0,0-1-6.12,13.43,13.43,0,0,1,1.63.8c3,2.23,6.06,4.45,9,6.75A4.56,4.56,0,0,1,12,272a19.86,19.86,0,0,0,9.57,10.64,25.85,25.85,0,0,0,3.18,1.57c1.88.68,4,.8,5.3,2.72.38.55,1.52.64,2.35.81,1,.21,2,.28,3,.42.23,0,.52.21.67.13,2.13-1.27,3.76.22,5.79,1.21l.42-2.53c1-.21,2.12-.49,1.43-2.25h5.77c.57-3.45,1.09-6.75,1.68-10,.43-2.44.91-4.86,1.45-7.28a3,3,0,0,0-.82-3,76,76,0,0,1-20.54-41.46c-.76-4.88-.87-9.86-1.17-14.8a21.58,21.58,0,0,1,.23-5.65A16.15,16.15,0,0,1,32.47,197c1-1.46.79-2.85.76-4.32,0-.46-.28-.93-.24-1.38.11-1.35-.17-2.79,1.29-3.77a3,3,0,0,0,.91-1.9c.38-2.3.64-4.61.94-6.92,0-.07-.06-.2,0-.22,1.71-1.47.8-3.5,1.11-5.26a6.66,6.66,0,0,1,1.91-3.93c1.09-1.05,2.22-2.37,1.19-4.21-.16-.29.12-.9.3-1.31.74-1.62,2.11-3,1.5-5.09-.09-.29.57-.73.69-1.16.43-1.49,1.62-2.65,1.66-4.35,0-.86.73-1.7,1.24-2.8,2.07,3.35,4.07,6.52,6,9.75a4.27,4.27,0,0,1,.33,2.08,20.87,20.87,0,0,0,3.43,11.31,50.14,50.14,0,0,1,2.41,5,2.67,2.67,0,0,1,2,1.8,9.06,9.06,0,0,0,2.93,4.15c1.17.74,2.1,2,3.32,2.3a13.89,13.89,0,0,1,3.14,1.29,2.42,2.42,0,0,0,1.94-.3c1.39-.84,1.52-.89,2.41.32.33.45.6.93.94,1.45a4.46,4.46,0,0,0,4.3-.81l2.42,1.21a8.68,8.68,0,0,0,1.12-1.44c4.25-8.64,9.78-16.49,15.23-24.39a6.14,6.14,0,0,1,.42-.58,2.2,2.2,0,0,0,.32-2.41c-1.19-3.72-2.44-7.45-3.27-11.26-.69-3.2-.83-6.53-1.2-9.8a6.33,6.33,0,0,0-.15-1.65,3.81,3.81,0,0,1,.64-4,2.6,2.6,0,0,1-.46-3.65,2.33,2.33,0,0,0,.46-1.09c.14-3.73,1.76-7.12,2.44-10.73.48-2.56,1.18-5.08,1.52-7.65a4.57,4.57,0,0,1,1.14-2.75c.74-.8,1.68-1.62.75-2.91a.67.67,0,0,1,.07-.65c1.76-1,1.11-3.36,2.51-4.58a1.73,1.73,0,0,0,.34-.87,11.7,11.7,0,0,1,2.21-4.84,6.27,6.27,0,0,1,1.2-1.28,6.17,6.17,0,0,0,2.84-4.88,3.23,3.23,0,0,0,2.37-2.08,1.55,1.55,0,0,1,.59-.71,13.24,13.24,0,0,0,4.63-6.36,4.55,4.55,0,0,1,.64-1.27c1.64-2,3.06-4.29,5.06-5.8,1.75-1.33,2.37-3.47,4.17-4.61a.67.67,0,0,0,.24-.4c.6-2.83,2.62-4.41,4.94-5.79.57-.34.9-1.06,1.34-1.61.3-.36.52-.88.91-1.06a9.19,9.19,0,0,0,4-3.7c.39,2.73.8,5.45,1.14,8.18,0,.32-.28.69-.45,1s-.54.73-.5,1.06c.4,2.95-1.57,5.52-1.22,8.48a20.11,20.11,0,0,1-.37,4c.4.59,1.26,1.38.33,2.64-.26.35,0,1.24.25,1.81.87,2.25,1.83,4.47,2.73,6.71.37.93.46,2,1.74,2.32.24.06.46.59.54.94.49,2.14.48,2.15,2.67,2.57a17.67,17.67,0,0,1,.83,2.13c.44,1.69.59,1.83,2.25,1.55a2.56,2.56,0,0,1,.7.06,1,1,0,0,1,.22.08c0,2.9.33,3.21,3,3.18.4.65.67,1.6,1.22,1.82s1.39-.31,2.46-.61c.93.76,2.25.67,3.54-.24.25-.18.68-.38.69-.58.06-2,1.78-2.55,3-3.4,4.3-2.92,8.64-5.78,13-8.55A3.29,3.29,0,0,0,177.85,87a42.2,42.2,0,0,1,1.62-12.29c.79-3,1.35-6,2.06-9a2.93,2.93,0,0,1,.81-1.42,6.15,6.15,0,0,0,1.77-4,5.15,5.15,0,0,1,.71-1.92c.77-1.27,1.79-2.4,2.45-3.72s1-3,1.67-4.39a4.85,4.85,0,0,1,1.4-1.54c1-.86,2.17-1.56,2.21-3.16a1.84,1.84,0,0,1,.88-1.29c1.74-.91,2.39-2.61,3.24-4.18A3.58,3.58,0,0,1,199,38a5.06,5.06,0,0,0,2.18-1.9c1.05-1.3,1.44-3.14,3.39-3.71a2,2,0,0,0,1-1.51c.17-1.55,1.26-2.12,2.45-2.57a4.21,4.21,0,0,0,2.63-1.75c.46-.77,1.82-1.17,2.85-1.39,1.89-.41,2.91-1.76,3.78-3.21a3.44,3.44,0,0,1,2.17-1.62c1.44-.45,3.09-.66,3.37-2.78.08-.58,1.24-1.31,2-1.45,3.42-.6,5.89-2.8,8.67-4.57,2.07-1.31,4.4-2.28,6.61-3.41.7-.36,1.75,0,2.5-.33a12.25,12.25,0,0,0,3.21-1.9,4.94,4.94,0,0,1,3.42-1.45,7.47,7.47,0,0,0,5.66-2,4.28,4.28,0,0,1,.86-.42,6.42,6.42,0,0,1,.07,1.63c-.83,3.42-1.67,6.83-2.6,10.22a4.72,4.72,0,0,1-1.21,2c-5.62,5.61-7.59,12.21-5.7,20a12.18,12.18,0,0,0,1.23,3.54A3.58,3.58,0,0,1,248,42.5a2.92,2.92,0,0,0,.84,3.24c.85.8.95,2.27,2.41,2.69.33.1.43,1.11.59,1.72.3,1.19.17,2.45,1.57,3.27.67.4.86,1.65,1.22,2.53.6,1.48,1.45,2.67,3.19,2.81s3-.63,4.12-2.85c4.27-.78,8.66-1.63,13.07-2.36a2.85,2.85,0,0,0,2.62-2c.94-2.36,2.24-4.57,3.44-6.95,2.05.32,3.24-.83,4.31-2.31a14.49,14.49,0,0,1,2.19-2.18,11.41,11.41,0,0,0,1.83-2.65,36.37,36.37,0,0,0,3.32-5.9c.12-.31.89-.3,1.24-.58.52-.41,1.46-.69,1.1-1.61a8.29,8.29,0,0,0-1.26-1.68c.18-.68.8-.72,1.73-.72,2.24,0,2.95-.7,3.58-3.06l-1.4.3c0-.16,0-.38.08-.42a19.84,19.84,0,0,1,2.06-1.11c1.28-.55,2.76-.65,3.66-2a1.81,1.81,0,0,1,1.46-.55c1.63.19,2.5-.78,3.3-1.92.23-.33.43-.67.63-1,1.11-1.82,2.4-3.34,4.76-3.48,1.2-.07,2.34-.32,2.92-1.66.31-.72,1-.91,1.82-.59a1.75,1.75,0,0,0,2.46-1.2A3.68,3.68,0,0,1,324.47,8c1.27-.07,2-1,3.15-1.13s2.28-.29,3.43-.4a26.58,26.58,0,0,0,8-2.51c1.8-.78,3.91-1.74,5.7-1.45C348.51,3.1,351.62.8,355.2.81c5.72,0,11.42-1.23,17.17-.36a2.53,2.53,0,0,0,1.19,0c2.6-1,5.12-.27,7.66.25a9.77,9.77,0,0,0,1.67,0,7.86,7.86,0,0,1-.65,1.67c-2,2.71-4,5.41-6.06,8.05a4.72,4.72,0,0,1-1.89,1.34A23.14,23.14,0,0,0,364.22,20c-2,2.69-2.17,5.65-2.62,8.64-.31,2-.49,4.1-.6,6.16-.06,1.07.18,2.15.22,3.23,0,1.58,0,3.16,0,4.74.11,3.41.27,6.82.41,10.29l22.4,4.5c1.6-1.53,3.19-3.11,4.84-4.61A73.86,73.86,0,0,1,408.42,40a38,38,0,0,1,9.65-3.26c.7-.11,1.41-.09,2.12-.17a6.8,6.8,0,0,0,1.83-.34c1.15-.49,2.19-1.29,3.58-.57.31.16.88-.28,1.34-.33,2.71-.29,5.41-.54,8.12-.81l.25.53,1.36-2.14c1.11.87,1.85,1.86,2.7,2,.6.08,1.36-1,2.21-1.74,1.23.1,2.73.49,4.23.64a32.59,32.59,0,0,0,5.14-.29l2.27,2.13c.58-.37,1-.66,1.37-.86.81-.4,1.47-.51,1.72.7a1.41,1.41,0,0,0,1.88,1,5.65,5.65,0,0,1,5,.71c.52.37,1.69-.18,2.46-.3l4,1.67a4.45,4.45,0,0,1,1.09.42c1.41,1.13,2.77.84,4.26-.17,1,2.38,2.54,4.06,5.2,4.42a1.34,1.34,0,0,1,.46.13c3.5,1.92,7.36,2.16,11.21,2.43a1.56,1.56,0,0,1,.88.22c1.27,1.16,2.78.95,4.28.81,1.95-.17,1.92-.18,2.94,1.66.51.92,1.21,1.51,2.34.8a2.94,2.94,0,0,1,.91-.19c-.1.3-.11.52-.21.58-3.43,2-6.85,4.11-10.32,6.09a4,4,0,0,1-1.85.19c-8.35.06-14.81,3.54-18.4,11.14s-6.66,15.57-10,23.5L478,101.11c2.65-1.09,5.28-2.23,8-3.24a74.07,74.07,0,0,1,32.53-4.43c13.62,1.12,26.19,5.65,37.94,12.51,3.1,1.81,6,3.94,9.13,5.75,1.17.68,1.5,2.14,2.82,2.57.76,2.14,3.83,1.78,4.46,4.09a1.09,1.09,0,0,0,.74.53c2.49.55,3.86,2.67,5.39,4.3,1.67,1.78,3.43,3.43,5.23,5.06,1.43,1.3,2.83,2.62,4.53,4.19.11,2-.08,4.71,3.28,5.64-1.78.25-3.55.55-5.34.72-.38,0-.82-.37-1.21-.62a5.67,5.67,0,0,0-4.91-.72,20.91,20.91,0,0,1-3.64.4c-.51-.86-1.08-2.14-2.64-2.52-.67-.16-1.14-.62-1.94-.14-.35.21-1.16-.15-1.68-.41a2.65,2.65,0,0,0-2.87.06,8.93,8.93,0,0,1-3.17.62c-.52.07-1.36-.19-1.55.07-.84,1.17-1.91.86-2.88.61a39.57,39.57,0,0,1-3.34,4,12.63,12.63,0,0,1-4,2.72,2.29,2.29,0,0,0-1.56,1.42,6.07,6.07,0,0,1-2.3,3,2.64,2.64,0,0,0-1.25,1.85c.2,2.4-1.72,3.35-3.16,3.9a3.55,3.55,0,0,0-2.51,3.36c0,1.81-.89,2.78-1.9,3.89-.38.41-.73.84-1.19,1.37l8.7,12.69c1.06,0,2.17.06,3.27,0,20.81-1.21,39.07,5.22,55,18.53,2.43,2,4.5,4.5,6.75,6.75.32.32.79.48,1.14.77a4.17,4.17,0,0,1,1.86,2.67,4.88,4.88,0,0,0,1.5,3c1,1,1.4,2.42,2.11,3.58,1.5,2.46,3.58,4.58,4.48,7.43a4.64,4.64,0,0,1,2.46,3,.82.82,0,0,0,.51.47c2.22.28,1.9,2.1,1.9,3.45a4.14,4.14,0,0,0,1.17,3,4.15,4.15,0,0,1,1.42,2.9,1.72,1.72,0,0,0,.73,1.37c1.76.68,2.06,2.13,2,3.68a2.9,2.9,0,0,0,1.86,3.2,2.52,2.52,0,0,1,1.6,2.89,6.23,6.23,0,0,0,1.16,4c.9,1.54,1.1,3.48,1.7,5.57-3.33-.81-6.34-1.5-9.32-2.3a4.46,4.46,0,0,1-1.71-1.22c-6.24-6.06-14.35-7.66-22.35-4.29-7.73,3.26-15.43,6.61-23.14,9.92-.43.19-.84.41-1.39.68.12.75.21,1.45.35,2.14,1.23,5.78,2.5,11.55,3.71,17.33a2.77,2.77,0,0,0,2.05,2.53c21.29,6.93,36.61,20.76,46.42,40.76a133.31,133.31,0,0,1,5.38,13.32,19.09,19.09,0,0,1,1.22,8.08,4.55,4.55,0,0,0,.11,1.4c.36,1.51.42,3.09.7,4.55.45,2.29.28,4.76,1.43,7.09-.79,1-.78,2.2-.91,3.56a36.58,36.58,0,0,0,.55,8.76,5.3,5.3,0,0,1-.16,1.17c-.29,3-1.05,6-.59,9.13a2.34,2.34,0,0,1-.13,1.17,1.68,1.68,0,0,0,.7,2.25,1.72,1.72,0,0,1,.59,2.29,9.76,9.76,0,0,0-.06,2.92,12.07,12.07,0,0,1-1.43-.75c-1-.74-2-1.57-3.08-2.29a17.24,17.24,0,0,1-6-6.83,18,18,0,0,0-16.33-10.46c-9.35-.28-18.72,0-28.07,0a4.77,4.77,0,0,0-.84.18c-.67,3.73-1.33,7.49-2,11.24-.21,1.14.69,1.49,1.29,2.08,3.49,3.4,7.1,6.68,10.43,10.24,4,4.23,6.92,9.19,9.72,14.23.23.41.57.92.5,1.32-.47,2.65.81,4.45,2.73,6-.53.9-1.55,1.7.23,2.56,1.08.53.75,1.85.55,2.84a11.66,11.66,0,0,0,.67,6.67,7.65,7.65,0,0,1,.39,2.34c.08,1.77,0,1.77,1.33,3.16a7.19,7.19,0,0,0-.41,6.54,3.58,3.58,0,0,1-.21,1.79c-.24,1.15-.6,2.2.21,3.39.38.56.07,1.6.07,2.57.31.27.89.56,1.14,1,.42.78-.65,1-.77,1.47-.34,1.29-1.28,2.24-1.58,3.6-.45,2.07.36,4.48-1.49,6.22a1.14,1.14,0,0,0-.33.87c.33,1.82-.57,3.69.09,5.43.53,1.4-.06,2.65-.26,3.89a12.39,12.39,0,0,0,.44,6.8,3.33,3.33,0,0,1,0,1h-1.8c-1,1-.18,1.92.18,2.76a17,17,0,0,0-1.07,2.22,4.11,4.11,0,0,0-.34,2.32,10.55,10.55,0,0,1-.42,7.58c-1.48,3.88-3.08,7.72-4.65,11.57a21.31,21.31,0,0,1-1,1.88c-2.4-3.89-4.69-7.54-6.91-11.24a3.91,3.91,0,0,1-.29-1.84c-.19-8.89-4.81-15.66-13-18.89-8.47-3.33-17-6.59-25.58-9.93l-12.16,19.6a76.09,76.09,0,0,1,7.27,18.38c4.08,16.18,2.67,32-3.12,47.57-4.23,11.35-10.53,21.5-17.94,31a189.3,189.3,0,0,1-19.9,21.42c-.33.31-.73.56-1.41,1.07l-1.14-7.5c-.14-.95-.3-1.89-.43-2.84a12.37,12.37,0,0,1,.64-6.23c2.85-7.66,1.24-14.7-4.35-20.62-6.21-6.57-12.63-12.93-19.06-19.49L468.26,549a30.76,30.76,0,0,0,.19,3.39c.35,2.22-.69,3.81-2.24,5.11-.67.56-1,1.2-.58,1.81,1.14,1.51.86,3.12.58,5-2.47.44-3.14,2.27-3.1,4.67a14.57,14.57,0,0,1-.54,2.8c-.16.84-.3,1.69-.45,2.6l3.64,2a8.68,8.68,0,0,1-.16,1.51,76.58,76.58,0,0,1-12.9,25.51,83.55,83.55,0,0,1-11,12,5,5,0,0,1-3.06,1.71.84.84,0,0,0-.45.15c-.71.55-1.32,1.4-2.11,1.61s-1.78-.21-3.11-.42l.92,2.79a4.57,4.57,0,0,1-6.09,1.32,4.32,4.32,0,0,0-1,.85,2.48,2.48,0,0,1-3,1.35,1.38,1.38,0,0,0-1,.37,30.3,30.3,0,0,1-4.5,3.45c-1.12.62-1.72,2.18-2.82,3.68a4.15,4.15,0,0,0-2.71,1.45,21.31,21.31,0,0,1-4.3,3.35,2.39,2.39,0,0,1-1.73.2c-1.61-.41-1.78-.49-2.17,1a2.33,2.33,0,0,1-2.34,1.67,12,12,0,0,0-3.9,1.56c-2.57,1.23-5.27,2.17-8.21,3.35a16,16,0,0,1,.21-1.73c.86-3.41,1.68-6.83,2.64-10.21a6.62,6.62,0,0,1,1.5-2.61c6.13-6.52,7.8-13.95,4.49-22.31-2.91-7.35-6-14.64-9-22-.18-.44-.39-.86-.66-1.43L371,588.72c-.23.6-.5,1.25-.74,1.92a75.29,75.29,0,0,1-25.33,35.08c-1.82,1.39-3.61,2.87-5.9,3.5a1,1,0,0,0-.61.36c-1.2,2.32-3.67,2.51-5.71,3s-3.46,1.89-5.3,2.58c-.29.11-.55.54-.77.51-2.14-.35-3.5,1-5,2.18a2,2,0,0,1-1.33.41,2.74,2.74,0,0,0-2.28,1,6.13,6.13,0,0,1-2.3,1.13c-1.35.43-2.72.77-4.1,1.07a5.23,5.23,0,0,1-2.54.29c-1.42-.49-2.44.06-3.55.72-.51.31-1.17.8-1.63.68-1.73-.45-3.11.62-4.66.86-.54.09-1.17.46-1.6.29-3.63-1.43-7-.24-10.49.68a3.72,3.72,0,0,1-1.81,0,2.12,2.12,0,0,0-2.37.56c-.29.31-1.26.51-1.4.34-1.1-1.34-2.79-.38-4-1.13a1.68,1.68,0,0,0-1.55.3c-1.72,1.72-3.4,1.38-5.15.13a2.89,2.89,0,0,0-.66-.26c-.57.39-1.09,1-1.68,1.08s-1.21-.51-1.85-.71c-.89-.29-1.8-.49-2.89-.78a8.77,8.77,0,0,1,.69-1.39c1.8-2.45,3.59-4.91,5.49-7.28a5.74,5.74,0,0,1,2.26-1.61A21.26,21.26,0,0,0,283,624.44a4.17,4.17,0,0,0,.31-.65,12.34,12.34,0,0,1,1.14-3.12,10.54,10.54,0,0,1,2.4-1.95l-.67-1.81c.1-.21.12-.4.23-.49,1.36-1.11,1.77-2.82,1.13-4.86-.58-1.85-.45-2.37,1.29-3.08,1-.4,1.06-1.3.66-1.63-1.32-1.09-.51-2.44-.5-3.56s.25-2-.68-2.78a2.57,2.57,0,0,1-.63-1.51c-.16-1.24,0-2.52-1.08-3.54-.24-.23,0-1,.07-1.46-.54-.85-1.75-.89-1.89-2.14,0-.35-1.29-.7-2-.82-3.71-.58-7.44-1-11.15-1.64-2.91-.47-5.8-1.07-8.42-1.56-3.34,3-6.34,6.06-9.62,8.71a69.28,69.28,0,0,1-19.52,11,20.36,20.36,0,0,1-5.37.82,3.62,3.62,0,0,0-2.74,1.16,4.94,4.94,0,0,1-2,1.16c-4.86,1.76-10,2-15.06,2.37a96.89,96.89,0,0,1-19.33-.79,144.48,144.48,0,0,1-26.52-6.4c-1.12-.38-2.13-1.06-3.22-1.53-.79-.34-1.63-.58-2.45-.86a6.62,6.62,0,0,1-2-.7c-1.39-1.11-2.6-2.45-4-3.54-.94-.72-2.18-1-3.05-1.89a26.52,26.52,0,0,0-2.83-2.29c2.82-1.64,5.35-3.18,7.94-4.58a4.74,4.74,0,0,1,2.31-.36c5.79.18,10.55-2.16,14.73-5.92A7.49,7.49,0,0,0,171.5,583a1.71,1.71,0,0,1,1.52-.73c.89-.07,2.38,0,2.42-1.71,0-.25.64-.53,1-.73,1.41-.76,1.39-1.11,0-2.2a1.4,1.4,0,0,1-.43-1.19C176.15,576,176.67,575.76,177.22,575.26ZM58.43,398l-.57.15.37,1.28.42-.11ZM24,432.23a2.16,2.16,0,0,0,.35-.54c0-.07-.19-.28-.28-.27a1.8,1.8,0,0,0-.51.25Z"/></g></g></svg>