<svg xmlns="http://www.w3.org/2000/svg" viewBox="0 0 1421.38 289.53"><title>Asset 16</title><g id="Layer_2" data-name="Layer 2"><g id="Layer_1-2" data-name="Layer 1"><path d="M833.64,85.49v16.6c3.62.42,6.93,1.67,10.45.09,1.09-.49,2.62,0,4,.07s2.66,0,4,0c.55,0,1.1,0,1.65.07s1,.33,1.39.18c2.07-.89,4.06-.37,6.07.16.23.06.51.18.7.11a8.25,8.25,0,0,1,5.78-.21c1,.32,1.33-.66,1.71-1.36,2.28-4.22,4.53-8.46,6.85-12.65,2.19-3.94,1.11-3.2,5.44-3.26,3.36,0,6.72,0,10.08,0h2.61c.08,1,.2,1.72.21,2.48,0,3.68.17,7.37,0,11-.17,2.84,1.57,4.49,4.27,3.76a15.83,15.83,0,0,0,2.35-.38,3.74,3.74,0,0,1,4,.37c1.4,1,2.78.32,4-.33a2.06,2.06,0,0,1,2-.13,7.87,7.87,0,0,0,1.83.39,6.05,6.05,0,0,0,5.79-2.05,6.31,6.31,0,0,1,1.61-.9l.37,2.75c1.83-1,3.42-.53,5-.13,3,.74,3.67.41,5.16-2.32,2.29-4.21,4.63-8.41,6.84-12.66A3,3,0,0,1,941,85.29c3.92.12,7.84,0,11.76,0,.7,0,1.4.09,2.32.15.09.95.24,1.79.25,2.64,0,3.44,0,6.88,0,10.32,0,.92.16,1.84.29,3.29,2.6-2.6,5.47-2,8.21-2,8,0,16,0,24,0,4.85,0,3.84.45,6.17-3.75,1.63-2.94,3.26-5.87,4.78-8.87a2.88,2.88,0,0,1,3-1.8c4.63.09,9.26,0,14.15,0,.11,1,.26,1.84.27,2.67,0,2.88,0,5.76,0,8.64s.15,3.08,3.15,3.08h57.84c9.68,0,19.36,0,29,0a12.41,12.41,0,0,1,4.88,1q64.94,26.77,129.93,53.44a24.86,24.86,0,0,0,5.8,1.21c7.72,1.14,13.67,5.22,18.38,11.19a40.68,40.68,0,0,1,8.55,24,43.62,43.62,0,0,1-3.89,20.77c-3.49,7.48-8.68,13.37-16.32,16.87a28.75,28.75,0,0,1-9.25,2.27,11.78,11.78,0,0,0-3.21.8q-29.54,12-59.06,24-32.3,13.16-64.6,26.32c-1.31.54-2.58,1.19-3.87,1.79-2.49,0-5.09-.08-7.67.05a8.42,8.42,0,0,0-2.55,1.18l-1.63-.86a4.08,4.08,0,0,0-4.1-.26,3.42,3.42,0,0,1-2,.41,21.9,21.9,0,0,0-5.15-.17,9.45,9.45,0,0,0-4.3,1.12c-.92-.54-1.69-1.07-2.53-1.47-2.2-1.05-4.17.3-6.22.72a14.17,14.17,0,0,0-1.53.68,1.86,1.86,0,0,1-1.65-.24c-2.82-1.48-5.85-1.09-8.85-.44-1.44.31-2.88,1.1-4.35.09a.34.34,0,0,0-.23-.06,11.92,11.92,0,0,1-5.54-.74,10,10,0,0,0-5.34.18,16.34,16.34,0,0,1-5.85-.06c-2.61-.34-5-.37-6.95,1.77a1.74,1.74,0,0,1-.61.37,6.26,6.26,0,0,1-.77.21c-1.42-1.81-3.1-3.08-5.59-2.11a.55.55,0,0,1-.24,0c-2-.17-3.77.09-5,2.23-1.65-3.07-4.3-2.28-6.63-2a6.13,6.13,0,0,1-4-.4c-1.9-1-4.2-1.34-5.64.95a45.65,45.65,0,0,1-5-.91,3.93,3.93,0,0,0-4,.65c-.63.49-1.94.08-3,.08-1,1.89-2,2-3.57.38-.38-.4-1.22-.88-1.55-.71-1.1.55-2,0-3-.16A4,4,0,0,0,986,284a23.07,23.07,0,0,1-4.75,1,1.39,1.39,0,0,1-.9-.27c-2.4-1.62-5-1-7.51-.57-.4.06-.74.53-1.13.82-1.65-1.08-3.31-1.74-5.12-.44a1,1,0,0,1-.7.06,46.37,46.37,0,0,0-5-.94c-2.92-.21-5.87-.22-8.8-.24a1.76,1.76,0,0,0-1.22.68c-.65.88-1.61.82-2.47,1.16a5.86,5.86,0,0,1-5.63-.58c-.44-.27-1.35-.5-1.57-.28-1.14,1.14-1.88.26-2.82-.27-1.86-1-3.55-.23-5.14.76-.59.37-1,1.08-1.72.17-2.34.41-4.4-.42-6.46-1.36-1.42-.65-2.89-1-4.15.41-2.43-1.82-4.82-.51-7.13-.09-1.91.35-3.64,1.2-5.67.24-1.07-.51-2.4-.47-3.5-1.13a1.34,1.34,0,0,0-1.14-.05c-2.31,1.29-4.72,1-7.19.73-.81-.07-1.69.71-2.54,1.09l-2.21-.77-.9,1.67c-.13-1.69-.8-2-2.08-1.83-1,.17-2.39-.55-3.21-.12-2.15,1.11-4,.59-6-.22a2.69,2.69,0,0,0-2,.24,6.51,6.51,0,0,1-6.28,0,5.19,5.19,0,0,0-4.82,0,3.66,3.66,0,0,1-3.29.08c-2.3-.84-2.3-.82-4.08,1.15-1.07-.32-2.17-.72-3.31-1-1.29-.27-2.19.43-3,1.79,0-2.3-1.69-1.49-2.65-1.85a20.58,20.58,0,0,0-2.76-.28c-2.3-.49-2.43-.47-3.27,1.55a28.33,28.33,0,0,0-3.69-1.51,10.82,10.82,0,0,0-3-.1,20.1,20.1,0,0,0-3.49.28c-.82.17-1.9-.28-2.5.92-.12.25-1.67.18-2.15-.23-1.34-1.15-2.75-.84-4.27-.81-2.6,0-4.9,1.4-7.49,1.42-1.62,0-3.25.25-4.87.26a4.27,4.27,0,0,1-3.83-1.81c-2,.22-3.82.45-5.63.6a4.85,4.85,0,0,1-1.85-.2c-2.25-.73-2.41-.76-4.64.16a3.49,3.49,0,0,0-4.7-.19,2.31,2.31,0,0,1-1.92-.05,7.34,7.34,0,0,0-4.85-.67,3.07,3.07,0,0,1-1.4.07,3.17,3.17,0,0,0-4,1.7c-2.33-.59-4.56-1.15-6.78-1.73a3.84,3.84,0,0,0-3,.31,5,5,0,0,1-4.37.31c-2-.83-3.31-.51-4.28,1.38-.05.1-.28.11-.61.24-1.54-2.34-3.54-3.26-6-1.28-3-1.53-5.79-1.16-8.72-.12a6.21,6.21,0,0,1-3.49.1c-1.72-.46-3.31-.92-5.13-.34-.75.24-1.69-.17-2.55-.21-2-.1-4.22-.69-5.25,1.47a45.2,45.2,0,0,0-5.9-2c-.92-.19-2,.8-3,.78s-2.08-.38-3.1.51a3.73,3.73,0,0,1-2.22.39,11.3,11.3,0,0,1-2.59-.31,6,6,0,0,1-1.88-.79c-1.79-1.17-2.76-1.17-4.73.11a1.76,1.76,0,0,1-.84.39,7.16,7.16,0,0,0-3.76,1.16c-.3.17-.78,0-1.17,0-.72-1.76-.71-1.73-2.51-1.43a3,3,0,0,1-1.64-.07c-2.72-1.23-5-.13-7.48,1.16-1.12-.72-2.34-1.72-3.59-.11a11.29,11.29,0,0,1-3.21-.67c-2.17-1.18-4.51-.88-6.73-.87a22.07,22.07,0,0,1-5.14-.46,8.67,8.67,0,0,0-4.92.29,3.41,3.41,0,0,1-1.15.3c-3.7-.11-7.4-.17-11.09-.43-1.58-.11-2.25.85-2.91,1.87-.36,0-.66.1-.82,0-2.32-1.57-5-1.14-7.51-1.16-.89,0-1.78.31-2.67.33-1.17,0-2.34-.05-3.5-.11-.39,0-.87-.27-1.15-.12-1.55.84-2.88.15-4.32-.35a10.48,10.48,0,0,0-6.55-.07c-2.57.74-5.19,1.48-7.95.59a4.21,4.21,0,0,0-3.69.16c-.41.25-1.06.12-1.59.15-.31,0-.71-.1-.92.05-2.22,1.62-4,.94-5.77-.84a3.9,3.9,0,0,0-2.69-.62c-1.88.11-3.74.53-5.62.7-1,.09-2-.16-3-.09a11.69,11.69,0,0,0-3.23.57,5.28,5.28,0,0,1-4.38-.16c-2.07-1.1-3.64-.57-5.17.88-3.17-.53-6.3-1.09-9.45-1.54a3.3,3.3,0,0,0-1.74.5,18.42,18.42,0,0,0-1.87,1.21c-2.09-2.22-3.2-2.32-5.09-.69a16.28,16.28,0,0,0-3.15-.86c-.46,0-1,.69-1.45,1.07-2.15-.32-4.32-.71-6.51-1-1.18-.13-2.45-.1-3,1.28-.38.9-1.16.77-1.83.75-1.44,0-2.87-.16-4.3-.27a1.61,1.61,0,0,1-.88-.25c-2.08-1.8-4.43-1.58-6.95-1.25a47.52,47.52,0,0,1-6.6,0,28,28,0,0,0-3.73-.07,35.44,35.44,0,0,1-8.47-.12c-2.49-.28-5-.48-7.42.91a9.69,9.69,0,0,1-3.5.93c-.42.06-.94-.44-1.38-.74-1-.71-2-1.65-3.42-.77a1.42,1.42,0,0,1-.93,0,2,2,0,0,0-2.4.92c-.86,1.19-1.39,1-2.81.28a4.46,4.46,0,0,0-2.66-.77,7.62,7.62,0,0,1-4.39-.43c-.52-.17-1.29-.52-1.57-.31-1.68,1.33-3.29.38-4.94.07a2.56,2.56,0,0,0-1.15,0c-3.72,1.09-7.45.34-11.17,0-1.52-.14-3-.43-3.56,1.75a3.16,3.16,0,0,0-3.82-.36,6.34,6.34,0,0,1-3,.38,2.15,2.15,0,0,1-1.33-.77,3.1,3.1,0,0,0-3.71-1.17c-.45.14-.93.62-1.29.53-2.58-.66-4.92.87-7.44.71a7,7,0,0,0-2.12.61c-1.11-.55-2.33-2.21-3.43.16-.53-.34-1-.47-1.15-.76a2.14,2.14,0,0,0-2.52-.92c-2.87.68-5.74,0-8.58.11-2.32.07-4.92-.52-7.11,1.43-1.3-1.56-2.89-1.7-4.85-1.23-1.46.35-3.09,0-4.65,0a2.65,2.65,0,0,0-1.37.22c-1.09.71-2.15.32-3.23.09a5.18,5.18,0,0,0-2.08-.37c-1.45.37-2.84.92-4.33.19a.75.75,0,0,0-.66.14c-1.74,1.59-3.51.71-5.26.06a2.74,2.74,0,0,0-2.83.09c-.4.28-1.27.53-1.47.33-1.16-1.14-2.18-.48-3.27,0A6.24,6.24,0,0,1,377,285c-1.4-.91-2.72-1.27-4.08,0-.11.11-.25.3-.36.29-2.14-.24-4.25,1.35-6.41.08-.37-.22-1-.46-1.28-.3-1.3.8-2.59.32-3.9.2a5.36,5.36,0,0,0-1.86.21,7.22,7.22,0,0,1-5.34-.47c-1.77-.88-3.56-1.33-5.24.37-.86.87-1.65-.1-2.34-.47-1.9-1-2-1-3.55.63L341,284.17a20.57,20.57,0,0,1-8.55.16,4.55,4.55,0,0,0-1.67,0c-1.74.44-3.45,1-5.13,1.45-2.48-2.15-3.14-2.23-5.9-.54a2.68,2.68,0,0,1-2.7.14,8.3,8.3,0,0,0-5.11-.7c-.94.22-2,.28-1.57,2a2.51,2.51,0,0,1-1.93,2.82,2,2,0,0,1-1.53-.31c-.28-.29-.23-1-.13-1.51a5.41,5.41,0,0,1,.77-1.36c-1.59-.6-3.25-.37-4.87-.35-3.12,0-6.23.2-9.35.2q-14,0-28.06-.07c-8.61,0-17.23-.21-25.84-.22-8.07,0-16.15.2-24.22.2q-54.58,0-109.15,0c-1,0-2.08.06-3.12,0-.51,0-1.3-.23-1.43-.56a2.49,2.49,0,0,0-2.8-1.4c-1.31.12-2.59-1.15-3.85,0-2-1.27-3.93-.48-5.95.09-.69.2-1.62-.48-2.45-.71a7.57,7.57,0,0,0-2-.44c-1.5,0-3,.12-4.51.26a11.28,11.28,0,0,0-3,.53,5.63,5.63,0,0,1-4.19,0,6.8,6.8,0,0,0-1.34-.48c-3-.41-5.25-2.14-7.36-4.14a5.29,5.29,0,0,0-1.44-1.23,19,19,0,0,1-5.77-3.23c-1-.87-2.59-1.08-3.93-1.57a3.66,3.66,0,0,1-2.3-2.26A2.66,2.66,0,0,0,47.87,269a3.28,3.28,0,0,1-1.92-.67q-14.75-11.89-29.44-23.85A44.07,44.07,0,0,1,.35,217.24,33,33,0,0,1,0,211.5q0-28.08.08-56.16a57.65,57.65,0,0,1,.62-7.15,8.32,8.32,0,0,1,1.75-4.36,39.71,39.71,0,0,0,3-5.07,48.32,48.32,0,0,0,4.19-8.13,1.21,1.21,0,0,1,.56-.71,6.73,6.73,0,0,0,3.56-3c.26-.4,1-.48,1.44-.79a6.89,6.89,0,0,0,1.79-1.5c.85-1.22,1.51-2.56,2.26-3.84a2.68,2.68,0,0,1,.62-.72c1.65-1.32,3.32-2.61,5-3.91.19-.15.54-.22.59-.38.55-2,2.36-2.62,3.85-3.62a11,11,0,0,0,1.61-1.74c.6-.63,1.12-1.57,1.85-1.78,1.61-.47,2.38-1.7,3.43-2.78a71.51,71.51,0,0,1,6.09-5.37c1.4-1.15,3.06-2,4.06-3.59a6.25,6.25,0,0,1,1.37-1.33c1.38-1.17,2.82-2.28,4.18-3.49a54,54,0,0,1,28.81-13,94.31,94.31,0,0,1,12.41-.89c10.88-.12,21.76,0,32.64,0h2.9c0-1.17,0-2.11,0-3q0-35,0-70.08c0-.56,0-1.12,0-1.68A2.52,2.52,0,0,1,132,.79c.55.14,1.34.3,1.72,0A4.06,4.06,0,0,1,137.4.4c2.46.67,4.87,1.37,7.45.46a5.44,5.44,0,0,1,2.32.15c3.08.42,6.15,1.09,9.27.2.31-.09.72.23,1.1.28s1.08.23,1.4,0c2.94-2,6-1,9.05-.44,1.36.26,2.73.5,4.09.74a1.32,1.32,0,0,0,.47.05c1.13-.24,2.44-1,3.33-.63a4,4,0,0,0,3.16-.18,3.48,3.48,0,0,1,3.18.15c.89.47,1.81,1.05,2.87.19.22-.18.77,0,1.13.08a3.65,3.65,0,0,0,3.37-.29c.64-.38,1.8,0,2.71.2.61.11,1.22.62,1.78.54.89-.12,1.82-1,2.57-.78s1.48.63,2.42.17c.48-.23,1.22,0,1.84.15a5,5,0,0,0,3.37-.59,6.36,6.36,0,0,1,5.46-.23c.44.19.86.41,1,.49,1.29-.37,2.31-.74,3.37-.94a2.26,2.26,0,0,1,2.34.84,1.53,1.53,0,0,0,2.49.2c1.31-1.58,2.9-1.13,4.39-.78a14.75,14.75,0,0,0,3.93.34,12.35,12.35,0,0,1,2.36.15,3.66,3.66,0,0,0,3.09-.42c1.52-1,3.2-.34,4.59.84l2.78-1c1.12,1.28,2.45,1.37,4.09,1.14,2-.27,4,.09,6.07,0A13.12,13.12,0,0,0,253,.79c.94,1.13,2.5,1.22,4.11.74a12.3,12.3,0,0,1,6.07-.37,35.09,35.09,0,0,0,6.8.41,6.79,6.79,0,0,0,2.23-.93,4.52,4.52,0,0,0,5.24-.13,3.63,3.63,0,0,1,1.82-.29,15.83,15.83,0,0,0,2.35.13,2.23,2.23,0,0,1,2.17.51,1.39,1.39,0,0,0,2.1,0c1-.83,2-1.13,3,.2a2,2,0,0,0,2.43.42,4.76,4.76,0,0,1,3.86,0c.61.28,1.52-.06,2.28-.19,1.38-.24,2.75-1.11,4.12.16.24.22.92.06,1.36-.06a5.09,5.09,0,0,1,1.72-.05c3.49.2,7,.88,10.47-.3a2.44,2.44,0,0,1,1.37.09,5.83,5.83,0,0,0,4.32-.42,2.76,2.76,0,0,1,2.69-.07,7.32,7.32,0,0,0,5,.62c1.51-.34,3.16,0,4.73-.12.88-.06,2,.63,2.67-.71.12-.23,1.56-.07,2.14.29,2.63,1.64,3.36,1.58,5.86,0a3.26,3.26,0,0,1,2.89-.13c2.56,1.68,5.44.73,8.12,1.24,1.32.25,2.85-.64,4.29-1,.58-.13,1.31-.38,1.77-.16a8.48,8.48,0,0,0,3.91.56,4.77,4.77,0,0,1,1.87.25,2.84,2.84,0,0,0,2.94-.33,4.38,4.38,0,0,1,3.74-.54c1.91.36,4,1.3,6.06-.11A3.19,3.19,0,0,1,383,.94c1.87,1.31,4.23,1.18,6.45,1,.58-.05,1.11-.71,1.78-1.18,1.58,1,3.2.58,4.9-.12a3.3,3.3,0,0,1,2.68-.07,2.56,2.56,0,0,0,2.82.35,2.29,2.29,0,0,1,2.65.4c.85.86,1.94.45,2.93.14,1.82-.58,3.62-1.17,5.51-.23a3.29,3.29,0,0,0,1.18.13c1.53.11,3-.37,4.65.14,1.47.45,3.36-.29,5-.72,1.41-.37,2.71-.79,4.11,0,.32.18.86-.06,1.31-.08,1.72-.09,3.34-.28,5,.75a4.65,4.65,0,0,0,4.53-.35,6.47,6.47,0,0,1,7,0,4,4,0,0,0,2,.62,29.44,29.44,0,0,0,4.69-.29c1-.16,2.19.25,3-.91.26-.36,1.36-.28,2-.13a28.71,28.71,0,0,1,3.2,1.13L462.2.13c2.28,1.72,4.74,1.33,7.21.45a4.59,4.59,0,0,1,4.32.28,8.31,8.31,0,0,0,3.13.9,2.36,2.36,0,0,0,1.79-.38c1.21-1.23,2.39-1,3.71-.14A3.81,3.81,0,0,1,487,.79c1.37.88,2.2-.64,3.49-.47.88,1.57,2.13,1.65,3.67.72a1.87,1.87,0,0,1,1.55,0c1.52.79,3,.54,4.63.37,1.3-.14,2.59-.79,4-.12a2.52,2.52,0,0,0,2-.16A4.13,4.13,0,0,1,509.91,1c1.45.43,3,1.09,4.64.38.36-.15.88.09,1.33.15a8.38,8.38,0,0,0,4.66-.3,5,5,0,0,1,4.25,0,3.78,3.78,0,0,0,3.77-.18c2.2-1.22,4.7-1,7.13-.5.85.19,1.7.42,2.54.64a2.06,2.06,0,0,0,2-.34A2.51,2.51,0,0,1,542,.58c1.11.15,2.14.91,3.35.05.32-.23,1.19.15,1.72.42a3.29,3.29,0,0,0,3,.29c1.75-.77,3.47-.16,5.18.11a6.33,6.33,0,0,0,3.44-.14c.88-.33,1.85-.87,3-.18.54.32,1.6-.33,2.44-.44,1-.12,2.18-.49,3-.11a7.46,7.46,0,0,0,3.65.61c1.87,0,3.75.63,5.6-.17,2.09,1.21,3.89.74,5.75-.66.41-.31,1.8.14,2.36.65a2.55,2.55,0,0,0,3.46.29,9.13,9.13,0,0,1,6-1.07,4.29,4.29,0,0,1,2.25.66c1.06.89,2,.49,3.12.27,1.7-.33,3.42-.53,5.14-.73a1.34,1.34,0,0,1,.84.38c1.68,1.41,3.37,1.19,5,.06a2.8,2.8,0,0,1,3.13-.31,2.63,2.63,0,0,0,2.68-.07,1.92,1.92,0,0,1,2.58.35c1,1.16,1.86,1.32,3.07.42a2.85,2.85,0,0,1,2.7-.31A13.29,13.29,0,0,0,633,.65a2.13,2.13,0,0,1,2,.18,5.48,5.48,0,0,0,4.78.51,20.25,20.25,0,0,1,4.84-.89,7.58,7.58,0,0,1,1.83.31,2.61,2.61,0,0,0,1.33.05c1.9-.93,3.92-.41,5.88-.58a1.38,1.38,0,0,1,1.05.34c1.46,1.87,3.3,1.45,5.21,1,2.91-.65,5.73-1.59,8.85-.41A7.19,7.19,0,0,0,673.33.8a7.71,7.71,0,0,1,4.19-.28c2.93.54,5.72.94,8.74.11a6.5,6.5,0,0,1,5.28.46,4.18,4.18,0,0,0,3.42.27c3-1.4,5.83-.71,8.78-.1a43.56,43.56,0,0,0,6.3.79,2.62,2.62,0,0,0,2.08-.87A2.05,2.05,0,0,1,715,.35c2.94,1.22,6,.62,9,.74.91,0,1.82.22,2.73.35.24,0,.53.23.69.15,1.87-1,3.89.2,5.77-.45.3-.1.7-.26.93-.15,1.84,1,3.65.24,5.51.09a39.29,39.29,0,0,1,5.7.45A5.9,5.9,0,0,0,749.16.9a2.85,2.85,0,0,1,2.52-.08,3.2,3.2,0,0,0,3.91-.14,5.4,5.4,0,0,1,1-.39,3.38,3.38,0,0,0,4.82.4,3.42,3.42,0,0,1,3.63,0c2.51,1.25,5.17,1,7.8.7,1.66-.17,3.31-.57,5,.1.07,0,.17.09.22.07,2.62-1,5.28.16,7.82-.1a24.74,24.74,0,0,1,5.51.16c1,.12,1.63-1.55,2.73-.45a15.13,15.13,0,0,1,6.42.21,3.16,3.16,0,0,0,2.63-.62c1.23-1,2.75-.05,4.15,0s2.64.31,4,.32a6.55,6.55,0,0,1,2.76.37c.86.37,2,.7,2.58-.76.1-.27.8-.51,1.18-.46A22.52,22.52,0,0,1,821.7,1c2.1.7,4.06,1.25,6.13-.23a2.88,2.88,0,0,1,3.76,0,2.22,2.22,0,0,0,2,.35c1.27-.78,2.45-.12,3.65-.09A7.55,7.55,0,0,0,841,.53c1.17-.55,3-1,4.35.61.56.67,1.52.57,2.28-.21s1.62-1.32,2.55.15a1.73,1.73,0,0,0,2.52.09,4.48,4.48,0,0,1,3.59-.89,2.48,2.48,0,0,1,1.29.42,3.08,3.08,0,0,0,3.53.58c1.44-.67,2.65-.18,4,0,.45.06,1,.27,1.35.11C869.58,0,872.87,0,876.2.37a4.18,4.18,0,0,1,1.56.4,2.36,2.36,0,0,0,2.87-.1,1.9,1.9,0,0,1,2.43.11c1.75,1.21,3.38,1.13,5.28,0s4.34-.91,6.49-.23a4.24,4.24,0,0,0,2.49,0c.46-.12,1-.51,1.34-.37,2.25,1,4.44.1,6.66,0a23.2,23.2,0,0,1,4.2.68,5,5,0,0,0,2.27.1c2.11-.78,2.08-.85,3.92.14,1-.85,2.08-1.28,3.29-.06.71.71,1.63.38,2.41-.16A3.36,3.36,0,0,1,925,.8,2.67,2.67,0,0,0,927.9.68a2.44,2.44,0,0,1,2.22-.17c2,.55,4.15,1.06,6.27,0a3.38,3.38,0,0,1,2.08-.26c4.37,1,8.72.32,13.08,0,1.81-.14,3.64,0,5.46-.05l6.39,0h134.16c4.47,0,8.95,0,13.42,0,3.31,0,6.62.29,9.93.3,3,0,6-.24,9-.25,6.6,0,13.21.05,19.81,0,3.89,0,7.78-.1,11.67-.11q10.77,0,21.55,0c6.21,0,12.41.11,18.61.12,3,0,5.91-.19,8.86-.11,8.26.22,16.52-.06,24.78,0,12.13.06,24.27,0,36.4,0,4.59,0,9.19,0,13.78,0,1.59,0,3.17.34,4.76.36,2.14,0,4.28-.16,6.42-.19,5.67-.07,11.34-.11,17-.15,2.55,0,5.09,0,7.64,0,7.35,0,14.71.07,22.06.09,1.75,0,3.51-.12,5.26-.08,1.1,0,2.2.25,3.3.37a3.5,3.5,0,0,0,1.17.06c3.16-.78,6.34-.44,9.52-.29.54,0,1.09-.06,1.64-.06,5.57.08,11.15.2,16.72.24,2,0,3.94-.27,5.92-.28q16-.07,31.9-.05c.39,0,.78.07,1.49.15-.06,1.29-.14,2.53-.18,3.76-.07,2.19-.58,4.46,1.14,6.48-1.22,1.85-1.22,4-1.12,6.16a3.51,3.51,0,0,0,.8,2.56c.82.85.57,1.7,0,2.55-1,1.43-1.14,4.48-.14,5.67a2.46,2.46,0,0,1,.13,3.22,3.61,3.61,0,0,0,.43,4.81c-.27.49-.6,1-.85,1.57-.15.34-.4.9-.25,1.08,1.09,1.33-.17,3.05.89,4.49.47.64.11,2-.05,3-.23,1.43-.78,2.82-.9,4.25a5.74,5.74,0,0,0,.51,3.19,5.73,5.73,0,0,1,.37,4.57,7.25,7.25,0,0,0-.09,2.1c.07,1.17.54,2.42.27,3.48-.64,2.46-.05,4.82,0,7.24.12,2.84,0,5.69,0,8.7-.65.06-1.26.17-1.87.17H1327.2a6.5,6.5,0,0,1-2.36-.22,5.8,5.8,0,0,0-4.08-.17c-2,.55-4.2.33-6.32.37-.42,0-.84-.36-1.27-.55s-.9-.57-1.05-.46c-1.5,1.11-2.7-.22-4-.43-.94-.14-2-.61-2.73.19-1.4,1.55-3.13,1-4.63.71a7.9,7.9,0,0,0-4.33.16c-2.07.69-4.06.15-6.08-.25a6.11,6.11,0,0,0-2.23.13c-1.29.24-2.41.7-3.83-.18-.91-.56-2.48-.21-3.71,0-.87.13-1.68.47-2.5-.1a.67.67,0,0,0-.46-.1,21.06,21.06,0,0,1-3.92.74c-1.18,0-2.4-.89-3.52-.75a48.56,48.56,0,0,1-6,.24c-2,0-4,.34-5.95.28-1.64-.05-3.25-.82-4.91-.11-1.84-1-3.63,0-5.41.2s-3.28.6-4.92-.12a2.26,2.26,0,0,0-1.39,0,4.73,4.73,0,0,1-3.47,0,2.58,2.58,0,0,0-1.37,0c-.29,0-.67.44-.83.35-2.46-1.36-5.09,1-7.59-.37-.54-.29-1.41,0-2.11.07a28.7,28.7,0,0,1-9.29,0,19.26,19.26,0,0,0-4.41.22c-.39,0-.85.27-1.16.14-3.21-1.38-6.39.12-9.58,0s-6.39,0-9.59,0c-6.27-.05-12.55-.19-18.82-.18q-106.6.08-213.2.26c-3.05,0-5.63-1.26-8.61-1.77a10,10,0,0,1-1.65,1.16,3.89,3.89,0,0,1-2,.44c-1.79-.24-3.55-.66-5.38-1l-1.75,1.25L938.86,78a17.85,17.85,0,0,1-2.89.94,14.17,14.17,0,0,1-3-.05,7.78,7.78,0,0,0-1.62-.22c-2.85.49-5.81-.36-8.61.68a1.2,1.2,0,0,1-.71,0,11.61,11.61,0,0,0-4.82,0c-.56.07-1.17-.37-1.77-.46-1.57-.24-3.25-1.74-4.66.34a12.52,12.52,0,0,1-3.67-.32c-1.19-.47-2.21-.86-3.27,0a1.82,1.82,0,0,1-2.38.08c-.32-.21-.71-.51-1-.49-2.11.14-4.22.34-6.33.56-.54.06-1.12.43-1.6.32-2.38-.53-4.73.22-7.09,0a3.1,3.1,0,0,1-.72,0c-2.84-1-5.7-.63-8.61-.34-1.69.17-3.47-.5-5.14-.27s-3.23.55-4.78-.56c-.36-.26-1.25,0-1.8.3a8,8,0,0,1-4,.31c-2-.09-4-.07-5.93-.15a13.5,13.5,0,0,1-2-.41c-.7,1.18-1.75,1.39-3.09.58-.42-.25-1.28-.41-1.56-.17-1.52,1.3-2.83.35-4.19-.21-.29-.12-.57-.27-1-.48-.9,1.4-2,1.78-3.53.8-.41-.27-1.22,0-1.82.09a8.21,8.21,0,0,1-4.63-.34c-1.71-.63-3.4-1.26-5,.59-.37.44-1.65.11-2.5.13l-2.27,0c-1,0-2.11.37-2.82,0-1.37-.79-2.6-.29-3.91-.22-1.89.11-3.78.15-5.67.16-.32,0-.65-.32-1-.5-2.07-1.17-4.27,0-6.38-.37-1.19,1.83-3.11,1.29-4.54.92a29.92,29.92,0,0,0-4.62-.55,11.25,11.25,0,0,0-2.26.28,12.8,12.8,0,0,1-1.58.07c-1.4,0-2.77-.42-4.19.22a5.45,5.45,0,0,1-2.6.07c-2-.19-3.93-.55-5.9-.68A13.13,13.13,0,0,0,775,79c-.75.1-1.72.41-2.24.08-1.47-.93-2.64-1.3-4.29-.19-.85.57-2.33.46-3.47.3A15,15,0,0,1,761.81,78c-.6,1.27-1.68,1.49-3.06,1.34-1.7-.19-3.5.54-5.07-.75-.24-.19-.86.13-1.31.14-1.67.06-3.34,1.12-5-.11-.3-.22-1,.12-1.54.24s-1.37.58-2,.46a56.43,56.43,0,0,0-6.05-.46,12.42,12.42,0,0,0-1.81.07c-1.24.05-2.49.62-3.72-.16a1.4,1.4,0,0,0-1.15-.15c-2.38,1.22-5,.31-7.4.5-2.65.2-5.37-.35-8.11.19a16.87,16.87,0,0,1-4.42-.2,7.59,7.59,0,0,1-2.12-.31c-1.24-.47-2.35-1-3.44.36-.25.31-1.05.23-1.6.21-2.42-.06-4.85-.21-7.27-.22-1.8,0-3.61.25-5.41.21-2.1,0-4.2-.42-6.3-.42-1.89,0-3.77.42-5.66.41-1.69,0-3.45.5-5.07-.68-.42-.31-1.39.06-2.08.21-2.73.6-5.45,1.13-8.12-.3a1,1,0,0,0-.91,0c-1.9,1.65-4.16.36-6.22.76a24.85,24.85,0,0,1-5,.06,5.47,5.47,0,0,1-3.22-.57,2.86,2.86,0,0,0-2.25.13,3.88,3.88,0,0,1-4.07-.16c-2.36.2-4.36.68-6.26.45s-4.1.69-6-.46c-.22-.13-.61,0-.93.07-3.41.18-6.82.41-10.23.52a23.49,23.49,0,0,1-3.3-.35,4.43,4.43,0,0,0-1.18-.09c-4.67.8-9.39.36-14.08.45a13.2,13.2,0,0,1-2.08-.41,5.3,5.3,0,0,0-2.11-.16,12.16,12.16,0,0,1-6,.2,2,2,0,0,0-.95,0c-2.61.85-5.18-.13-7.76-.14-.24,0-.57-.21-.69-.12-1.87,1.49-3.74.27-5.63.08a20.71,20.71,0,0,0-3.45.18c-1.95.14-3.89.39-5.84.4-2.75,0-5.5-.17-8.25-.17s-5.25.17-7.88.16a19.75,19.75,0,0,1-2.51-.46,7.8,7.8,0,0,0-1.79,0,42.81,42.81,0,0,1-4.49.49c-2.86,0-5.71-.37-8.56-.37-2.69,0-5.37.33-8.06.37a24.1,24.1,0,0,1-3-.54,4.11,4.11,0,0,0-2.25.09,5.61,5.61,0,0,1-3.24.36c-1.57-.07-3.14,0-4.72,0-1.12,0-2.23,0-3.35,0-2.05-.06-4.12-.29-6.16-.18a20,20,0,0,1-5.89-.22c-1.62-.38-3.44.14-5.18.23-.69,0-1.38-.05-2.07,0a22.18,22.18,0,0,1-6-.43c-1.19-.28-2.59.44-3.92.61a21.18,21.18,0,0,1-2.62,0h-2.78c-.24,0-.48.09-.71.08-2.34-.09-4.69-.25-7-.27-1.89,0-3.79.18-5.68.18s-4.09.29-6.07-.48c-.26-.1-.72-.14-.88,0-1,.91-2.14.63-3.2.55-4.26-.34-8.5,0-12.75,0H291.45c-.2,2.47-.53,4.67-.53,6.87,0,3.73.2,7.45.31,11.18.06,2.1.19,2.23,2.41,2.3,1.65.05,3.33-.23,4.75,1.1.34.31,1.34,0,2-.15,1-.23,2.28-1.13,2.91-.78,1.76,1,3.35,0,4.95.17s3.28.17,4.93.24a16.19,16.19,0,0,1,2.46.75,5.51,5.51,0,0,0,2.72.28c1.92-.69,3.75-1.6,4.79-3.61,1.84-3.55,3.83-7,5.67-10.56a2.88,2.88,0,0,1,2.95-1.86c4.16.1,8.32,0,12.48,0,.62,0,1.23.11,2.09.19V101.9c1.06.08,1.89.17,2.72.19,1.09,0,2.18,0,3.28,0,.24,0,.57.12.7,0,1.45-1.32,3.13-.65,4.74-.61a15.49,15.49,0,0,1,3,.22,7.31,7.31,0,0,0,4.69,0c1.75-.74,3.56-.1,5.34,0a42.9,42.9,0,0,1,5.69.53c2.06.35,3.66-.92,5.5-1.31.51-.11.89-1.06,1.23-1.68,2.19-4,4.42-8,6.5-12a3,3,0,0,1,3.19-1.87c4.63.1,9.26,0,14.18,0,.09,1,.22,1.82.22,2.65,0,3.68,0,7.36,0,11,0,.85.09,1.71.15,2.66a3.65,3.65,0,0,0,1.14,0c2.4-1.05,4.77-.44,7.17,0a17,17,0,0,0,2.33.17c.15,0,.35-.13.46-.07,2.55,1.28,5,0,7.53-.22a1.07,1.07,0,0,1,.67.12c1.77,1.32,3.13.25,4.62-.82a3.34,3.34,0,0,0,4.1.56,4.45,4.45,0,0,1,2.28.15c.69.11,1.35.44,2,.5A3.87,3.87,0,0,0,444,99.6c2.07-4.14,4.41-8.16,6.56-12.27a3.21,3.21,0,0,1,3.33-2.05c4.55.14,9.1,0,13.91,0A24.13,24.13,0,0,1,468.1,88c0,3.36,0,6.72,0,10.08,0,.93.15,1.87.2,2.39,1.33.51,2.28,1,3.28,1.23a8,8,0,0,0,1.84,0c.78,0,1.79-.24,2.3.14,1.51,1.16,3.14.85,4.77.78q5-.22,10-.47a3.7,3.7,0,0,0,1.86-.29c1.74-1.28,3.11-.61,4.47.58.18.16.36.3.48.39l6-.45c.87-1.59,1.79-3.26,2.7-4.94l5.72-10.54c.41-.76.73-1.6,1.86-1.59,5,0,9.91,0,15.14,0A25.52,25.52,0,0,1,529,88c0,3.68,0,7.36,0,11,0,.94.15,1.88.25,3a29.34,29.34,0,0,1,4.1.41c3.81.93,7.61,0,11.42.14a2.44,2.44,0,0,0,1.1-.38,5.19,5.19,0,0,1,4.59-.16,6,6,0,0,0,3.23.44,8.8,8.8,0,0,1,4,.22,4.55,4.55,0,0,0,3.89-.34c.66-.43,1.68-.32,2.79-.49.33-.57.79-1.31,1.2-2.07,2.25-4.15,4.56-8.26,6.7-12.46a3.34,3.34,0,0,1,3.56-2.06c3.76.12,7.52,0,11.28,0,.78,0,1.56.07,2.57.11.08,1,.19,1.83.2,2.68,0,4.08,0,8.16,0,12.24,0,2.55.82,3.16,3.26,2.33a6.76,6.76,0,0,1,2.76-.18,51.77,51.77,0,0,0,5.46-.21,3.92,3.92,0,0,1,1.41-.06,5.28,5.28,0,0,0,5.89-1.33c.88,2,2.13,1.75,3.66.92a3.06,3.06,0,0,1,3.2-.3,4.28,4.28,0,0,0,5.12-.29,9.85,9.85,0,0,1,1.56-.65,6.67,6.67,0,0,0,.62,1.11c1.08,1.33,1.76,1.28,2.69-.2.26-.41.46-.84.69-1.26,2.36-4.36,4.77-8.69,7.05-13.09a3,3,0,0,1,3.18-1.87c3.92.12,7.84,0,11.76,0,.71,0,1.41.07,2.36.12.07.94.17,1.79.17,2.63,0,3.92,0,7.84,0,11.76,0,.85.12,1.7.18,2.5a32.4,32.4,0,0,1,4.2,0,12.82,12.82,0,0,0,3.89-.52,12.39,12.39,0,0,1,5.84,0,23.79,23.79,0,0,0,11.37.56c1.64-.31,3.27-.71,4.92-.92a6.85,6.85,0,0,1,2.34.32,22.91,22.91,0,0,1,2.21.78c.52-.86,1-1.65,1.48-2.48,2.33-4.28,4.7-8.55,6.94-12.88a3,3,0,0,1,3.16-1.93c4.63.12,9.26,0,14.18,0,.07,1,.18,1.83.19,2.66,0,4,0,8,0,12,0,2.58.43,3.11,3.05,3.1,2,0,3.94-.39,5.92-.56a14,14,0,0,1,3.52-.13c2.5.43,4.78-.64,7.19-.79.39,0,.94-.3,1.15-.13,2.32,1.82,5.11.42,7.6,1.15a11.77,11.77,0,0,0,3.51,0c.95,0,1.89-.1,3.14-.17.32-.55.76-1.29,1.17-2,2.4-4.43,4.84-8.84,7.17-13.3a2.88,2.88,0,0,1,3-1.83c4.16.1,8.32,0,12.48,0,.55,0,1.1.08,1.87.14.07.73.19,1.41.19,2.1,0,3.52,0,7,0,10.56,0,2.79,1.51,4.09,4.37,3.79,2-.21,3.94.53,5.93.55a32.15,32.15,0,0,0,4.9.18,9.66,9.66,0,0,1,2.51-.09,63.24,63.24,0,0,0,7.09.44c.68,0,1.36-.86,2.29-1.49a13.12,13.12,0,0,0,6.91.32,3.8,3.8,0,0,0,2.65-2.16c2.19-4.18,4.53-8.28,6.68-12.47a3,3,0,0,1,3.13-1.92c4.08.11,8.16,0,12.24,0C832,85.33,832.62,85.42,833.64,85.49ZM594.48,8.81c-3.36-.53-81.67-.37-83.35.12-.47,3.08-.32,51.65.17,53.33,3.19.49,81.4.32,83.18-.22Zm373.83-.13c-.67-.07-1.06-.15-1.45-.15H886a3.09,3.09,0,0,0-.7.13c-.07,0-.13.09-.19.14L885,9c-.53,4.58-.28,51.69.3,53.36h83.05Zm-644.16,0V62.2c2.83.48,81.48.38,83.28-.08V8.7ZM698,8.7V62.19c2.79.48,81.47.39,83.29-.08V8.7Zm-280.39,0V62.21c3,.49,81.51.37,83.28-.11V8.66Zm270.11,53.7c.5-4.09.31-51.93-.18-53.61-3.56-.5-81.38-.31-83.07.2-.47,4.33-.26,51.64.27,53.42ZM874.89,8.69H791.55V62.31h83.35Zm103.5,53.65h83.36V8.69H978.39Zm-664.53,0c.51-3.92.32-51.94-.17-53.61-3.43-.49-81.38-.32-83.07.19-.48,4.28-.26,51.65.27,53.42Zm-175.33-.15c3.22.51,80.23.37,81.92-.11.48-2.84.34-51.63-.15-53.32-2.85-.47-79.94-.34-81.77.17ZM1072,8.7c-.45,3.29-.3,51.83.16,53.61h77.37V8.7Zm87.69,53.52c3.55.51,76,.35,77.64-.12.45-3.62.27-51.66-.2-53.35-3.2-.47-75.65-.31-77.44.19Zm87.9-53.57V62.31h77.57V8.65Zm164,53.71V8.9c-2.32-.56-75.85-.5-77.65,0-.48,4-.27,51.66.25,53.42Z"/></g></g></svg>